<?xml version="1.0" encoding="utf-8"?>
<!-- Generator: Adobe Illustrator 28.0.0, SVG Export Plug-In . SVG Version: 6.00 Build 0)  -->
<svg version="1.1" id="Layer_1" xmlns="http://www.w3.org/2000/svg" xmlns:xlink="http://www.w3.org/1999/xlink" x="0px" y="0px"
	 viewBox="0 0 77.67 20.44" style="enable-background:new 0 0 77.67 20.44;" xml:space="preserve">
<style type="text/css">
	.st0{fill:#2483C5;}
	.st1{fill:#A4C2E6;}
</style>
<path class="st0" d="M20.24,10.08c0-0.21-0.17-0.38-0.38-0.38c-0.03,0-0.06,0.01-0.09,0.01c-3.32,0.69-6.78,0.97-10.33,0.77
	c-1.09-0.06-2.17,0-3.23,0.08c-0.08,0.01-0.16,0.02-0.24,0.03c-0.85,0.11-1.66,0.49-2.29,1.11c-0.56,0.55-0.95,1.25-1.12,2.02
	c-0.2,0.92-0.06,1.87,0.33,2.72c0.38,0.83,0.98,1.54,1.73,2.06c0.82,0.55,1.71,0.98,2.65,1.26c0.59,0.18,1.12,0.29,1.74,0.37
	c0.01-0.24,0.36-0.6,0.38-0.78c0.01-0.18-0.12-0.33-0.3-0.35c-0.97,0.04-1.69,0.01-2.6-0.33C5.59,18.32,4.74,17.74,4.07,17
	c-0.32-0.36-0.59-0.75-0.76-1.2c-0.17-0.45-0.24-0.93-0.21-1.41c0.09-1.61,1.34-2.97,2.94-3.2c0.88-0.13,1.8,0.1,2.52,0.63
	c0.38,0.27,0.7,0.63,0.93,1.03c0.27,0.46,0.49,0.93,0.64,1.44c0.32,1.05,0.35,2.2,0.22,3.28c-0.06,0.46-0.16,0.92-0.29,1.36
	c-0.07,0.25-0.16,0.51-0.26,0.75c-0.02,0.04-0.03,0.09-0.03,0.14c0,0.2,0.16,0.37,0.36,0.38c0.03,0,0.07,0,0.09,0
	c2.46,0,4.71-0.88,6.45-2.35c0,0,0,0,0.01-0.01c0.07-0.07,0.11-0.16,0.11-0.26c0-0.08-0.03-0.14-0.06-0.21
	c-0.65-1.14-2.07-2.77-2.07-2.77s1.61,1.44,2.76,2.07c0.06,0.03,0.13,0.06,0.21,0.06c0.1,0,0.2-0.04,0.26-0.11
	c0-0.01,0.01-0.01,0.01-0.01c1.46-1.74,2.35-3.99,2.35-6.44C20.24,10.14,20.24,10.11,20.24,10.08"/>
<path class="st1" d="M2.1,14.67c-0.4-0.88-0.64-1.83-0.7-2.79c-0.01-0.13-0.01-0.3-0.01-0.43c0-0.18-0.14-0.33-0.32-0.33
	c-0.18,0-0.56,0.33-0.83,0.33c0.28,2.12,1.23,4.12,2.71,5.66c0.73,0.76,1.62,1.34,2.64,1.62c0.88,0.24,1.8,0.13,2.61-0.28
	c0.39-0.2,0.74-0.46,1.04-0.78c0.31-0.34,0.55-0.75,0.78-1.15c0.24-0.43,0.44-0.87,0.62-1.32c0.2-0.48,0.36-0.97,0.57-1.44
	c0.82-1.78,1.97-3.41,3.52-4.62c0.76-0.59,1.59-1.09,2.46-1.48c0.45-0.2,0.91-0.37,1.38-0.51c0.22-0.07,0.45-0.13,0.68-0.18
	c0.2-0.06,0.32-0.28,0.25-0.48c-0.57-1.44-1.48-2.74-2.63-3.77c-0.01-0.01-0.02-0.02-0.03-0.02c-0.06-0.06-0.15-0.1-0.25-0.1
	c-0.1,0-0.19,0.06-0.27,0.12C14.48,4,13.11,6.14,13.11,6.14s0.72-1.83,2.26-4.09c0.04-0.06,0.06-0.12,0.06-0.2
	c0-0.13-0.06-0.24-0.16-0.31c-0.01-0.01-0.02-0.02-0.04-0.02c-0.95-0.55-1.99-0.95-3.07-1.17c-0.79-0.16-1.6-0.22-2.4-0.18
	c0,0,0,0-0.01,0c-0.01,0-0.01,0-0.01,0c-0.2,0.01-0.36,0.17-0.36,0.37C9.27,3.17,9.79,7.7,9.79,7.7S8.87,3.24,7.97,0.76
	C7.91,0.61,7.78,0.5,7.61,0.5c-0.03,0-0.05,0-0.07,0.01c0,0,0,0-0.01,0C7.47,0.53,7.4,0.55,7.33,0.57C5.82,1.01,4.43,1.82,3.28,2.91
	C3.09,3.1,2.9,3.29,2.72,3.5C2.71,3.5,2.71,3.51,2.7,3.51C2.64,3.58,2.6,3.67,2.6,3.76c0,0.1,0.04,0.21,0.11,0.27
	c1.97,1.5,3.43,3.21,3.43,3.21S4.28,5.86,2.05,4.98C1.99,4.96,1.93,4.93,1.86,4.93c-0.13,0-0.24,0.07-0.31,0.16c0,0,0,0.01,0,0.01
	c-0.32,0.55-0.6,1.12-0.81,1.72C0.47,7.59,0.29,8.38,0.21,9.19C0.19,9.39,0.18,9.6,0.39,9.72c0.08,0.05,0.18,0.05,0.27,0.03
	C0.79,9.72,0.93,9.7,1.06,9.68c0.53-0.09,1.07-0.13,1.6-0.12c1.07,0.01,2.14,0.21,3.15,0.58c0.93,0.35,1.77,0.89,2.42,1.66
	c1.21,1.44,1.86,3.91,0.46,5.44c-0.64,0.71-1.58,1.05-2.52,0.96c-0.49-0.04-0.91-0.21-1.34-0.44c-0.38-0.21-0.75-0.45-1.08-0.74
	C3.04,16.37,2.49,15.54,2.1,14.67"/>
<path class="st0" d="M44.96,9.51c0-0.16,0.92-0.03,1.35,0.09c0.34,0.11,0.89,0.27,1.47,0.71c0.33,0.25,0.73,0.71,0.73,1.25
	c0,0.54-0.32,0.81-0.72,0.81c-0.21-0.03-0.44-0.16-0.63-0.35c-0.2-0.2-0.35-0.59-0.92-1.24C45.59,10.05,44.96,9.62,44.96,9.51"/>
<path class="st0" d="M44.35,4.21l0-1.03l0.45-0.14v0c0.06-0.01,0.1-0.06,0.1-0.12c0-0.07-0.05-0.12-0.11-0.13l0,0L42.7,2.46v1.74
	h-4.54l0.14,0.31h10.73c0,0,0.13-0.19,0-0.31c-0.13-0.12-1.27-0.83-1.27-0.83l-0.76,0.83H44.35z"/>
<path class="st0" d="M42.49,9.93L42.49,9.93l-1.85-0.65c-0.68,1.13-1.31,2.05-2.31,2.89c-0.02,0.02-0.04,0.04-0.04,0.07
	c0,0.05,0.04,0.1,0.1,0.1c0.01,0,0.02,0,0.04-0.01v0c0,0,0,0,0,0c0.88-0.32,2.15-1.13,3.65-2.15l0.37,0c0.07,0,0.13-0.06,0.13-0.13
	C42.58,9.99,42.54,9.95,42.49,9.93"/>
<path class="st0" d="M62.64,5.69c-0.17-0.16-1.4-0.92-1.4-0.92l-0.77,0.92h-2.74l0-2.52l0.46-0.14l0,0c0.06-0.02,0.1-0.06,0.1-0.12
	c0-0.07-0.05-0.12-0.11-0.13v0L56,2.46v3.22h-4.17L51.97,6H56c-0.02,1.54-0.38,2.74-0.91,3.61c-0.66,1.1-1.66,2.12-3.28,3.01
	c0,0,0,0,0,0c-0.01,0-0.01,0.01-0.02,0.01v0c-0.02,0.02-0.04,0.04-0.04,0.08c0,0.06,0.05,0.1,0.1,0.1c0.01,0,0.02,0,0.03-0.01v0
	c1.96-0.56,3.53-1.45,4.34-2.51c0.7-0.91,1.18-1.95,1.33-3.28c0.14,1.18,0.44,2.14,0.89,2.85c0.57,1.02,1.51,1.99,2.78,2.78
	c0.01,0.01,0.02,0.01,0.03,0.02c0.01,0.01,0.03,0.01,0.05,0.01c0.03,0,0.05-0.01,0.07-0.03c0.03-0.02,0.05-0.05,0.05-0.09
	c0.08-0.47,0.7-0.89,1.17-1.05c-1.51-0.84-2.74-1.85-3.34-2.61c-0.72-0.91-1.22-1.88-1.49-2.9h4.88C62.64,6,62.8,5.85,62.64,5.69"/>
<path class="st0" d="M68.33,2.88c-0.01,0.02-0.01,0.06,0.02,0.11c0.13,0.22,0.48,0.72,0.68,1.06c0.24,0.42,0.26,0.57,0.41,0.72
	c0.13,0.13,0.59,0.24,0.86,0.05c0.28-0.19,0.31-0.57,0.19-0.86c-0.11-0.29-0.53-0.76-0.99-0.93C69.04,2.85,68.4,2.73,68.33,2.88"/>
<path class="st0" d="M70.56,2.51c-0.02,0.03-0.04,0.08,0,0.12c0.15,0.19,0.46,0.58,0.7,0.97c0.31,0.49,0.35,0.78,0.51,0.95
	c0.26,0.26,0.73,0.21,0.89,0.05c0.23-0.22,0.3-0.61,0.22-0.9c-0.14-0.46-0.56-0.85-1.15-1.05C71.2,2.46,70.66,2.42,70.56,2.51"/>
<path class="st0" d="M68.17,4.33c0.25,0.04,0.41,1.01,0.16,1.87c-0.2,0.71-0.69,1.02-1.23,0.9c-0.42-0.09-0.56-0.46-0.43-0.9
	c0.11-0.38,0.46-0.66,0.7-0.9c0.25-0.24,0.55-0.65,0.62-0.85C68.02,4.39,68.07,4.31,68.17,4.33"/>
<path class="st0" d="M72.76,9.26v2.68c0,0.65-1.26,0.85-1.65,0.85c-0.2,0-0.19-0.19-0.28-0.36c-0.07-0.14-0.3-0.34-1.56-0.43
	l-0.11-0.25h2l0-2.49h-4.49l-0.15-0.31h4.64V7.74l1.91,0.21c0.18,0.09-0.04,0.4-0.32,0.51v0.49h2.43l0.86-0.93
	c0,0,1.03,0.77,1.2,0.93c0.16,0.16,0,0.31,0,0.31H72.76z"/>
<path class="st0" d="M77.59,5.39c0-0.05-0.03-0.09-0.07-0.11v0l-0.01,0l-1.66-0.83L75.39,5.1l-1.59-0.01l1.85-1.64l0.52-0.06
	c0.07,0,0.13-0.06,0.13-0.13c0-0.05-0.04-0.1-0.08-0.12l-1.91-0.68c-0.3,0.76-0.67,1.69-1.11,2.63h-4.87L68.32,5.4l7.17,0.02
	l-0.48,1.51l0.19,0.06l1.83-1.44l0.44-0.04v0C77.54,5.51,77.59,5.45,77.59,5.39"/>
<path class="st0" d="M75.51,6.94L75.51,6.94L73.93,5.9l-0.47,0.49h-4.82l0.14,0.31h4.59l-0.88,1.42c0.15,0.03,0.02,0.29,0.27,0.34
	l2.2-1.33l0.47,0.04v0c0,0,0.01,0,0.01,0c0.07,0,0.13-0.06,0.13-0.13C75.57,7,75.55,6.96,75.51,6.94"/>
<path class="st0" d="M32.23,10.32c-0.78-0.34-1.39-0.78-1.84-1.31h2v0.47l1.55-0.23v-3.2l0.35-0.16c0.06-0.03,0.1-0.08,0.1-0.15
	c0-0.06-0.04-0.12-0.09-0.14v0l-1.5-0.85l-0.5,0.65H30.3V4.25h4.64c0,0,0.15-0.18,0-0.32c-0.15-0.14-1.18-0.74-1.18-0.74L33.1,3.93
	h-2.8V3.17l0.45-0.14v0c0.06-0.02,0.1-0.06,0.1-0.12c0-0.07-0.05-0.12-0.11-0.13l0,0l-2.04-0.31v1.46h-4.63l0.13,0.32h4.5v1.14h-2.1
	l-1.48-0.57v4.66l1.55-0.23V9.01l1.57,0c-1.21,1.5-2.64,2.43-4.09,3.26v0c-0.03,0.02-0.05,0.05-0.05,0.09c0,0.05,0.04,0.1,0.1,0.1
	c0.01,0,0.02,0,0.03-0.01v0c1.32-0.43,2.84-0.84,4.48-2.15v2.51l1.6-0.22V9.46c0.24,0.51,0.51,0.83,0.83,1.17
	c0.7,0.81,1.67,1.31,2.93,1.79c0.2-0.63,0.48-1.12,0.96-1.27l0.08-0.12C34.08,10.84,33.12,10.75,32.23,10.32 M28.71,8.7h-2.03V7.3
	h2.03V8.7z M28.71,6.99h-2.03V5.7h2.03V6.99z M30.3,5.7h2.09v1.29H30.3V5.7z M30.3,7.3h2.09v1.4H30.3V7.3z"/>
<path class="st0" d="M48,5.81L48,5.81l-1.55-0.88l-0.5,0.65H41.2l-1.53-0.57v4.05l1.6-0.23V8.57h1.54l0,3.19h-2L40.91,12
	c1.26,0.1,1.48,0.29,1.55,0.43c0.09,0.17,0.08,0.36,0.28,0.36c0.38,0,1.65-0.21,1.65-0.85V8.57l1.64,0v0.45l1.59-0.23V6.32V6.27
	l0.36-0.17c0.06-0.02,0.1-0.08,0.1-0.15C48.09,5.89,48.05,5.84,48,5.81 M46.03,8.25h-4.78V5.89h4.78V8.25z"/>
<path class="st0" d="M29.03,15.98c0.01,0,0.02-0.01,0.02-0.03v-0.08c0-0.59,0-0.7-0.01-0.82c-0.01-0.13-0.04-0.19-0.16-0.22
	c-0.03-0.01-0.09-0.01-0.14-0.01c-0.04,0-0.06-0.01-0.06-0.03c0-0.03,0.03-0.04,0.08-0.04h1c0.05,0,0.08,0.01,0.08,0.04
	c0,0.03-0.02,0.03-0.07,0.03c-0.03,0-0.06,0-0.11,0.01c-0.1,0.02-0.13,0.09-0.14,0.22c-0.01,0.12-0.01,2.17,0.01,2.34
	c0.01,0.11,0.04,0.19,0.14,0.21c0.05,0.01,0.13,0.02,0.19,0.02c0.04,0,0.06,0.01,0.06,0.03c0,0.03-0.03,0.04-0.07,0.04h-1.04
	c-0.05,0-0.08-0.01-0.08-0.04c0-0.02,0.01-0.03,0.06-0.03c0.05,0,0.1-0.01,0.13-0.02c0.07-0.02,0.09-0.1,0.11-0.21
	c0.02-0.16,0.02-0.47,0.02-0.83v-0.34c0-0.02-0.01-0.02-0.02-0.02h-1.41c-0.01,0-0.02,0-0.02,0.02v0.34c0,0.36,0,0.67,0.02,0.83
	c0.01,0.11,0.03,0.19,0.14,0.21c0.05,0.01,0.13,0.02,0.19,0.02c0.04,0,0.06,0.01,0.06,0.03c0,0.03-0.03,0.04-0.07,0.04h-1.04
	c-0.05,0-0.08-0.01-0.08-0.04c0-0.02,0.02-0.03,0.06-0.03c0.06,0,0.1-0.01,0.13-0.02c0.07-0.02,0.09-0.1,0.11-0.21
	c0.02-0.16,0.02-2.21,0.01-2.34c-0.01-0.13-0.04-0.19-0.16-0.22c-0.03-0.01-0.09-0.01-0.14-0.01c-0.04,0-0.06-0.01-0.06-0.03
	c0-0.03,0.03-0.04,0.08-0.04h1c0.05,0,0.08,0.01,0.08,0.04c0,0.03-0.02,0.03-0.07,0.03c-0.03,0-0.06,0-0.11,0.01
	c-0.1,0.02-0.13,0.09-0.14,0.22c-0.01,0.12-0.01,0.23-0.01,0.82v0.08c0,0.02,0.01,0.03,0.02,0.03H29.03z"/>
<path class="st0" d="M33.54,14.18c-0.01-0.18-0.05-0.26-0.21-0.29c-0.04-0.01-0.12-0.02-0.19-0.02c-0.05,0-0.08-0.01-0.08-0.05
	s0.04-0.05,0.11-0.05h1.32c0.07,0,0.11,0.01,0.11,0.05s-0.03,0.05-0.08,0.05c-0.05,0-0.08,0-0.14,0.02
	c-0.13,0.03-0.17,0.11-0.18,0.29C34.18,14.34,34.18,16,34.18,16c0,0.75,0.14,1.07,0.38,1.28c0.22,0.19,0.45,0.21,0.62,0.21
	c0.22,0,0.48-0.07,0.68-0.28c0.27-0.28,0.29-0.75,0.29-1.28c0,0,0-1.58-0.01-1.75c-0.01-0.18-0.05-0.26-0.21-0.29
	c-0.04-0.01-0.12-0.02-0.18-0.02s-0.08-0.01-0.08-0.05s0.03-0.05,0.1-0.05h1.13c0.07,0,0.1,0.01,0.1,0.05s-0.03,0.05-0.09,0.05
	c-0.05,0-0.08,0-0.14,0.02c-0.13,0.03-0.17,0.11-0.18,0.29c-0.01,0.17-0.01,1.65-0.01,1.65c0,0.58-0.05,1.19-0.47,1.56
	c-0.35,0.32-0.7,0.37-1.02,0.37c-0.26,0-0.73-0.02-1.09-0.36c-0.25-0.24-0.44-0.62-0.44-1.37C33.55,16.03,33.55,14.34,33.54,14.18"
	/>
<path class="st0" d="M50.65,15.05c-0.01-0.13-0.04-0.2-0.13-0.22c-0.04-0.01-0.09-0.01-0.13-0.01c-0.04,0-0.06-0.01-0.06-0.04
	c0-0.02,0.03-0.03,0.09-0.03h0.93c0.05,0,0.08,0.01,0.08,0.03c0,0.03-0.02,0.04-0.06,0.04c-0.04,0-0.07,0-0.11,0.01
	c-0.1,0.02-0.13,0.09-0.14,0.22c-0.01,0.12-0.01,2.19,0.01,2.36c0.01,0.1,0.04,0.17,0.15,0.19c0.05,0.01,0.13,0.02,0.19,0.02
	c0.04,0,0.06,0.01,0.06,0.03c0,0.03-0.03,0.04-0.07,0.04h-1.04c-0.05,0-0.08-0.01-0.08-0.04c0-0.02,0.01-0.03,0.06-0.03
	c0.06,0,0.1-0.01,0.13-0.02c0.07-0.02,0.1-0.08,0.11-0.19C50.66,17.24,50.66,15.18,50.65,15.05"/>
<path class="st0" d="M55.49,16.68c0-0.21-0.04-0.29-0.09-0.41c-0.02-0.06-0.52-0.92-0.65-1.12c-0.09-0.14-0.18-0.24-0.26-0.29
	c-0.05-0.03-0.11-0.05-0.15-0.05c-0.03,0-0.05-0.01-0.05-0.03c0-0.02,0.02-0.04,0.07-0.04h0.86c0.04,0,0.06,0.01,0.06,0.04
	c0,0.02-0.03,0.03-0.08,0.04c-0.03,0.01-0.05,0.04-0.05,0.07c0,0.03,0.02,0.08,0.04,0.13c0.05,0.12,0.57,1.05,0.63,1.16
	c0.03-0.09,0.5-0.95,0.55-1.07c0.04-0.09,0.05-0.15,0.05-0.2c0-0.04-0.01-0.08-0.08-0.1c-0.03-0.01-0.07-0.02-0.07-0.04
	c0-0.03,0.02-0.04,0.06-0.04h0.74c0.04,0,0.07,0.01,0.07,0.03c0,0.03-0.03,0.04-0.07,0.04c-0.04,0-0.1,0.02-0.16,0.05
	c-0.08,0.04-0.12,0.09-0.2,0.19c-0.12,0.16-0.64,1.07-0.71,1.24c-0.06,0.14-0.06,0.26-0.06,0.39c0,0,0,0.54,0.01,0.71
	c0.01,0.11,0.04,0.2,0.15,0.21c0.05,0.01,0.13,0.02,0.18,0.02c0.04,0,0.06,0.01,0.06,0.03c0,0.03-0.03,0.04-0.08,0.04h-1.03
	c-0.05,0-0.08-0.01-0.08-0.04c0-0.02,0.02-0.03,0.06-0.03c0.05,0,0.1-0.01,0.13-0.02c0.07-0.01,0.11-0.1,0.12-0.21
	C55.49,17.23,55.49,16.68,55.49,16.68"/>
<path class="st0" d="M57.77,16.22c0-0.66,0.42-1.53,1.52-1.53c0.92,0,1.49,0.57,1.49,1.46c0,0.89-0.59,1.59-1.53,1.59
	C58.2,17.74,57.77,16.91,57.77,16.22 M60.27,16.29c0-0.87-0.51-1.41-1.11-1.41c-0.42,0-0.88,0.25-0.88,1.22
	c0,0.81,0.46,1.45,1.16,1.45C59.7,17.55,60.27,17.42,60.27,16.29"/>
<path class="st0" d="M66.22,16.22c0-0.66,0.42-1.53,1.53-1.53c0.92,0,1.49,0.57,1.49,1.46c0,0.89-0.59,1.59-1.53,1.59
	C66.65,17.74,66.22,16.91,66.22,16.22 M68.72,16.29c0-0.87-0.51-1.41-1.11-1.41c-0.42,0-0.88,0.25-0.88,1.22
	c0,0.81,0.45,1.45,1.16,1.45C68.15,17.55,68.72,17.42,68.72,16.29"/>
<path class="st0" d="M71.91,14.82c0.04,0,0.11,0.02,0.15,0.05c0.07,0.04,0.16,0.14,0.26,0.28c0.13,0.2,0.62,1.06,0.65,1.12
	c0.05,0.11,0.08,0.2,0.08,0.41c0,0,0,0.54-0.01,0.71c-0.01,0.11-0.04,0.2-0.11,0.21c-0.04,0.01-0.08,0.02-0.13,0.02
	c-0.04,0-0.06,0.01-0.06,0.03c0,0.03,0.03,0.04,0.08,0.04h1.02c0.05,0,0.08-0.01,0.08-0.04c0-0.02-0.02-0.03-0.06-0.03
	c-0.05,0-0.13-0.01-0.18-0.02c-0.11-0.01-0.14-0.1-0.15-0.21c-0.01-0.16-0.01-0.71-0.01-0.71c0-0.13,0-0.25,0.06-0.39
	c0.07-0.17,0.59-1.08,0.71-1.24c0.08-0.1,0.12-0.15,0.2-0.19c0.06-0.03,0.13-0.05,0.16-0.05c0.04,0,0.07-0.01,0.07-0.04
	c0-0.02-0.03-0.03-0.07-0.03h-0.74c-0.04,0-0.06,0.01-0.06,0.04c0,0.02,0.03,0.03,0.07,0.04c0.06,0.02,0.08,0.06,0.08,0.1
	c0,0.05-0.02,0.12-0.05,0.2c-0.05,0.12-0.52,0.97-0.55,1.07c-0.06-0.11-0.58-1.04-0.63-1.16c-0.03-0.05-0.04-0.1-0.04-0.13
	c0-0.03,0.02-0.06,0.05-0.07c0.06-0.02,0.08-0.02,0.08-0.04c0-0.02-0.02-0.04-0.05-0.04h-1.69c-0.04,0-0.06,0.01-0.06,0.04
	c0,0.02,0.01,0.03,0.05,0.04c0.04,0.01,0.05,0.03,0.05,0.08c0,0.07-0.08,0.16-0.18,0.29c-0.11,0.13-0.65,0.71-0.77,0.86h-0.02v-0.17
	c0-0.59,0-0.7,0.01-0.82c0.01-0.13,0.04-0.2,0.14-0.22c0.04-0.01,0.07-0.01,0.1-0.01c0.03,0,0.05-0.01,0.05-0.03
	c0-0.03-0.03-0.04-0.08-0.04h-0.96c-0.06,0-0.08,0.01-0.08,0.04c0,0.03,0.02,0.03,0.06,0.03c0.05,0,0.12,0,0.15,0.01
	c0.12,0.03,0.15,0.09,0.16,0.22c0.01,0.12,0.01,2.17-0.01,2.34c-0.02,0.11-0.04,0.2-0.11,0.21c-0.04,0.01-0.08,0.02-0.13,0.02
	c-0.04,0-0.06,0.01-0.06,0.03c0,0.03,0.03,0.04,0.07,0.04h1c0.04,0,0.07-0.01,0.07-0.04c0-0.02-0.02-0.03-0.05-0.03
	c-0.05,0-0.13-0.01-0.18-0.02c-0.09-0.01-0.13-0.1-0.14-0.21c-0.01-0.17-0.01-0.47-0.01-0.83v-0.35h0.02l0.04,0.06
	c0.08,0.11,0.8,1.01,0.97,1.16c0.16,0.15,0.26,0.23,0.46,0.25c0.08,0.01,0.14,0.01,0.25,0.01h0.32c0.07,0,0.09-0.01,0.09-0.04
	c0-0.02-0.02-0.03-0.05-0.03c-0.04,0-0.12-0.01-0.23-0.06c-0.2-0.08-0.36-0.26-0.53-0.42c-0.14-0.14-0.87-0.96-1-1.15
	c0.12-0.14,0.68-0.72,0.8-0.84c0.16-0.16,0.28-0.24,0.4-0.29C71.77,14.84,71.86,14.82,71.91,14.82"/>
<path class="st0" d="M74.41,16.22c0-0.66,0.42-1.53,1.52-1.53c0.92,0,1.49,0.57,1.49,1.46c0,0.89-0.59,1.59-1.53,1.59
	C74.84,17.74,74.41,16.91,74.41,16.22 M76.91,16.29c0-0.87-0.51-1.41-1.11-1.41c-0.42,0-0.88,0.25-0.88,1.22
	c0,0.81,0.45,1.45,1.16,1.45C76.34,17.55,76.91,17.42,76.91,16.29"/>
<path class="st0" d="M49.14,18.02c-0.33-0.02-0.63-0.12-0.89-0.38c-0.25-0.25-0.68-0.85-0.93-1.33c0.37-0.32,0.49-0.58,0.49-0.87
	c0-0.26-0.15-0.46-0.25-0.53c-0.2-0.14-0.45-0.17-0.68-0.17h-1.03c-0.05,0-0.08,0.01-0.08,0.03c0,0.03,0.02,0.04,0.06,0.04
	c0.05,0,0.11,0,0.14,0.01c0.12,0.03,0.15,0.09,0.16,0.22c0.01,0.12,0.01,0.23,0.01,0.82v0.68c0,0.36,0,0.66-0.02,0.83
	c-0.01,0.11-0.03,0.2-0.11,0.21c-0.03,0.01-0.08,0.02-0.13,0.02c-0.05,0-0.06,0.01-0.06,0.03c0,0.03,0.03,0.04,0.07,0.04h0.99
	c0.05,0,0.07-0.01,0.07-0.04c0-0.02-0.02-0.03-0.05-0.03c-0.04,0-0.12-0.01-0.18-0.02c-0.11-0.01-0.13-0.1-0.14-0.21
	c-0.02-0.16-0.02-0.47-0.02-0.83V16.5c0-0.02,0.01-0.03,0.03-0.03l0.32,0.01c0.03,0,0.05,0,0.07,0.03c0.04,0.09,0.23,0.52,0.39,0.79
	c0.17,0.26,0.33,0.47,0.49,0.61c0.2,0.16,0.41,0.22,0.66,0.24c0.32,0.03,0.54,0,0.6-0.02c0.05-0.02,0.12-0.03,0.12-0.07
	C49.26,18.01,49.2,18.03,49.14,18.02 M47.16,16.23c-0.07,0.05-0.11,0.07-0.26,0.07c-0.09,0-0.2-0.01-0.28-0.04
	c-0.03-0.01-0.03-0.03-0.03-0.07V15c0-0.03,0.01-0.05,0.03-0.05c0.04-0.01,0.1-0.02,0.2-0.02c0.22,0,0.57,0.16,0.57,0.71
	C47.38,15.96,47.27,16.14,47.16,16.23"/>
<path class="st0" d="M26.54,14.72c-0.02,0-0.04,0.02-0.1,0.03h-2.09c-0.09-0.01-0.13-0.05-0.16-0.05c-0.02,0-0.03,0.03-0.05,0.08
	c-0.01,0.04-0.08,0.46-0.08,0.46c0,0,0,0.01,0,0.01c0,0.02,0.02,0.04,0.04,0.04c0.02,0,0.03-0.01,0.04-0.02v0v0
	c0.01-0.03,0.03-0.1,0.07-0.16c0.05-0.08,0.14-0.1,0.36-0.11h0.55c0,0,0,2.24-0.02,2.41c-0.01,0.11-0.03,0.2-0.11,0.21
	c-0.03,0.01-0.08,0.02-0.13,0.02c-0.04,0-0.06,0.01-0.06,0.03c0,0.03,0.03,0.04,0.07,0.04h1.05c0.04,0,0.07-0.01,0.07-0.04
	c0-0.02-0.02-0.03-0.06-0.03c-0.06,0-0.14-0.01-0.19-0.02c-0.11-0.01-0.14-0.1-0.15-0.21c-0.02-0.17-0.02-2.41-0.02-2.41h0.46
	c0.33,0.01,0.43,0.11,0.43,0.22l0.01,0.08c0,0.02,0.02,0.04,0.04,0.04c0.02,0,0.04-0.02,0.04-0.04c0,0,0-0.42,0-0.47
	C26.57,14.75,26.57,14.72,26.54,14.72"/>
<path class="st0" d="M54.13,14.72c-0.02,0-0.04,0.02-0.1,0.03h-2.09c-0.09-0.01-0.13-0.05-0.16-0.05c-0.02,0-0.03,0.03-0.05,0.08
	c-0.01,0.04-0.08,0.46-0.08,0.46h0c0,0,0,0.01,0,0.01c0,0.02,0.02,0.04,0.04,0.04c0.02,0,0.03-0.01,0.04-0.02v0v0
	c0.01-0.03,0.03-0.1,0.07-0.16c0.06-0.08,0.14-0.1,0.36-0.11h0.55c0,0,0,2.24-0.02,2.41c-0.01,0.11-0.03,0.2-0.11,0.21
	c-0.03,0.01-0.08,0.02-0.13,0.02c-0.04,0-0.06,0.01-0.06,0.03c0,0.03,0.03,0.04,0.07,0.04h1.05c0.04,0,0.07-0.01,0.07-0.04
	c0-0.02-0.02-0.03-0.06-0.03c-0.06,0-0.14-0.01-0.19-0.02c-0.11-0.01-0.13-0.1-0.14-0.21c-0.02-0.17-0.02-2.41-0.02-2.41h0.47
	c0.33,0.01,0.43,0.11,0.43,0.22l0.01,0.08c0,0.02,0.02,0.04,0.04,0.04c0.02,0,0.04-0.02,0.04-0.04c0,0,0-0.42,0-0.47
	C54.16,14.75,54.15,14.72,54.13,14.72"/>
<path class="st0" d="M66.72,13.73c-0.02,0-0.06,0.02-0.13,0.04H63.8c-0.12-0.01-0.17-0.07-0.21-0.07c-0.03,0-0.04,0.03-0.06,0.1
	c-0.01,0.05-0.11,0.61-0.11,0.61l0,0c0,0,0,0.01,0,0.01c0,0.03,0.02,0.05,0.05,0.05c0.02,0,0.04-0.01,0.05-0.03v0v0
	c0.02-0.04,0.04-0.13,0.09-0.21c0.07-0.11,0.19-0.14,0.48-0.15h0.74c0,0,0,2.99-0.02,3.21c-0.01,0.15-0.04,0.26-0.14,0.28
	c-0.04,0.01-0.11,0.02-0.18,0.02c-0.06,0-0.08,0.02-0.08,0.04c0,0.04,0.03,0.05,0.1,0.05h1.39c0.06,0,0.09-0.02,0.09-0.05
	c0-0.03-0.03-0.04-0.08-0.04c-0.07,0-0.18-0.01-0.25-0.02c-0.15-0.02-0.18-0.14-0.19-0.28c-0.03-0.22-0.03-3.22-0.03-3.22h0.62
	c0.44,0.01,0.56,0.15,0.58,0.29l0.01,0.11c0,0.03,0.02,0.05,0.05,0.05c0.03,0,0.05-0.02,0.05-0.05c0,0,0-0.56,0.01-0.63
	C66.76,13.76,66.75,13.73,66.72,13.73"/>
<path class="st0" d="M31.97,17.13c0-0.02-0.02-0.04-0.04-0.04c-0.02,0-0.03,0.01-0.04,0.03c-0.04,0.16-0.13,0.26-0.22,0.31
	c-0.1,0.05-0.25,0.05-0.35,0.05c-0.38,0-0.39-0.05-0.39-0.32c0-0.11,0-0.91,0-0.91c0-0.02,0-0.04,0.02-0.04c0.09,0,0.46,0,0.53,0.01
	c0.14,0.02,0.19,0.07,0.21,0.15c0.01,0.05,0.01,0.1,0.01,0.14c0,0.02,0.02,0.04,0.04,0.04c0.02,0,0.04-0.01,0.04-0.04h0v0v0
	l0.05-0.57h0c0,0,0,0,0,0c0-0.02-0.02-0.04-0.04-0.04c-0.01,0-0.02,0.01-0.03,0.02c0,0,0,0,0,0.01v0c-0.01,0.01-0.01,0.02-0.02,0.03
	c-0.03,0.04-0.09,0.05-0.18,0.06c-0.09,0.01-0.51,0.01-0.59,0.01c-0.02,0-0.03-0.02-0.03-0.04v-0.98c0-0.03,0.01-0.04,0.03-0.04
	c0.07,0,0.46,0.01,0.52,0.02c0.18,0.02,0.22,0.07,0.25,0.14c0.02,0.05,0.02,0.13,0.02,0.15c0,0.02,0.02,0.04,0.04,0.04
	c0.02,0,0.04-0.02,0.04-0.03c0.01-0.05,0.04-0.49,0.04-0.52c0-0.02,0-0.03-0.02-0.03s-0.04,0.01-0.06,0.02
	c-0.03,0.01-0.09,0.02-0.16,0.02h-1.46c-0.06,0-0.08,0.01-0.08,0.03c0,0.03,0.02,0.04,0.06,0.04c0.05,0,0.11,0,0.15,0.01
	c0.12,0.03,0.15,0.09,0.16,0.22c0.01,0.12,0.01,2.17-0.01,2.34c-0.01,0.11-0.03,0.2-0.11,0.21c-0.03,0.01-0.08,0.02-0.13,0.02
	c-0.04,0-0.06,0.01-0.06,0.03c0,0.03,0.03,0.04,0.07,0.04h1.49c0.14,0,0.18,0.01,0.2-0.09C31.92,17.52,31.97,17.14,31.97,17.13
	L31.97,17.13C31.97,17.14,31.97,17.13,31.97,17.13"/>
<path class="st0" d="M43.82,14.82c0.05,0,0.11,0,0.14,0.01c0.12,0.03,0.15,0.09,0.16,0.22c0.01,0.12,0.01,2.17-0.01,2.34
	c-0.02,0.11-0.03,0.2-0.11,0.21c-0.03,0.01-0.08,0.02-0.13,0.02c-0.04,0-0.06,0.01-0.06,0.03c0,0.03,0.03,0.04,0.07,0.04h1.49
	c0.14,0,0.18,0.01,0.2-0.09c0.01-0.08,0.06-0.46,0.06-0.46h0c0,0,0-0.01,0-0.01c0-0.02-0.02-0.04-0.04-0.04
	c-0.02,0-0.04,0.02-0.04,0.03c-0.04,0.16-0.12,0.26-0.22,0.31c-0.1,0.05-0.25,0.05-0.35,0.05c-0.38,0-0.38-0.05-0.39-0.32
	c0-0.11,0-0.91,0-0.91c0-0.02,0-0.04,0.02-0.04c0.09,0,0.45,0,0.52,0.01c0.14,0.02,0.19,0.07,0.21,0.15
	c0.01,0.05,0.01,0.1,0.01,0.14c0,0.02,0.02,0.04,0.04,0.04c0.02,0,0.04-0.02,0.04-0.03v0v0l0.05-0.57h0c0,0,0,0,0-0.01
	c0-0.02-0.02-0.04-0.04-0.04c-0.01,0-0.03,0.01-0.03,0.02c0,0,0,0,0,0.01c0,0,0,0,0,0c-0.01,0.01-0.01,0.02-0.02,0.03
	c-0.03,0.04-0.09,0.05-0.18,0.06c-0.08,0.01-0.51,0.01-0.59,0.01c-0.02,0-0.03-0.02-0.03-0.04v-0.98c0-0.03,0.01-0.04,0.03-0.04
	c0.07,0,0.46,0.01,0.52,0.02c0.18,0.02,0.22,0.07,0.25,0.14c0.02,0.05,0.02,0.13,0.02,0.15c0,0.02,0.02,0.04,0.04,0.04
	c0.02,0,0.04-0.02,0.04-0.04c0.01-0.05,0.04-0.49,0.04-0.52c0-0.02-0.01-0.04-0.02-0.04c-0.02,0-0.04,0.01-0.06,0.02
	c-0.03,0.01-0.09,0.02-0.16,0.02h-2.23c-0.07,0-0.1,0.01-0.1,0.04c0,0.03,0.03,0.03,0.06,0.03c0.05,0,0.1,0,0.15,0.02
	c0.03,0.01,0.05,0.04,0.05,0.07c0,0.03-0.01,0.09-0.03,0.14c-0.09,0.26-0.57,1.51-0.73,1.93h-0.01l-0.64-1.76
	c-0.05-0.14-0.08-0.25-0.08-0.3c0-0.04,0.01-0.06,0.03-0.08c0.03-0.02,0.09-0.03,0.15-0.03c0.03,0,0.06-0.01,0.06-0.03
	c0-0.03-0.04-0.04-0.08-0.04h-2.88c-0.06,0-0.1,0-0.1,0.04c0,0.02,0.02,0.03,0.06,0.03c0.05,0,0.14,0,0.2,0.02
	c0.09,0.04,0.12,0.11,0.13,0.35l0.04,1.75H39.3c-0.06-0.06-1.91-2.15-1.96-2.2c-0.06-0.07-0.1-0.12-0.14-0.12
	c-0.04,0-0.05,0.05-0.05,0.13l-0.03,2.37c0,0.34-0.02,0.45-0.11,0.48c-0.05,0.02-0.12,0.02-0.17,0.02c-0.04,0-0.06,0.01-0.06,0.03
	c0,0.03,0.03,0.04,0.08,0.04h0.86c0.05,0,0.08-0.01,0.08-0.04c0-0.02-0.02-0.03-0.06-0.03c-0.06,0-0.13,0-0.19-0.03
	c-0.07-0.03-0.12-0.13-0.13-0.43l-0.04-1.7h0.01c0.07,0.08,1.74,2.01,1.97,2.24c0.04,0.04,0.09,0.09,0.13,0.09
	c0.03,0,0.05-0.04,0.05-0.12l0.04-2.5c0-0.22,0.03-0.3,0.14-0.33c0.04-0.01,0.1-0.01,0.13-0.01c0.04,0,0.12,0,0.17,0.02
	c0.08,0.02,0.12,0.09,0.12,0.22c0.01,0.12,0.01,2.19-0.01,2.36c-0.01,0.11-0.03,0.18-0.11,0.19c-0.03,0.01-0.08,0.02-0.13,0.02
	c-0.04,0-0.06,0.01-0.06,0.03c0,0.03,0.03,0.04,0.07,0.04h1.04c0.04,0,0.07-0.01,0.07-0.04c0-0.02-0.02-0.03-0.06-0.03
	c-0.05,0-0.14-0.01-0.19-0.02c-0.11-0.01-0.14-0.08-0.15-0.19c-0.01-0.17-0.01-2.24-0.01-2.36c0.01-0.13,0.04-0.2,0.14-0.22
	c0.05-0.01,0.07-0.01,0.11-0.01c0.03,0,0.07,0,0.12,0.02c0.13,0.04,0.2,0.08,0.28,0.3l0.93,2.38c0.07,0.18,0.09,0.24,0.14,0.24
	c0.05,0,0.08-0.06,0.17-0.29c0.08-0.2,0.79-1.88,0.93-2.24c0.1-0.25,0.15-0.32,0.2-0.35C43.71,14.82,43.78,14.82,43.82,14.82"/>
<path class="st0" d="M61.67,16.21c0.09,0,0.45,0,0.52,0.01c0.14,0.02,0.19,0.08,0.21,0.16c0.01,0.05,0.01,0.1,0,0.14
	c0,0.02,0.02,0.04,0.04,0.04s0.04-0.02,0.04-0.03v0v0l0.05-0.57v-0.01c0-0.02-0.02-0.04-0.04-0.04c-0.01,0-0.03,0.01-0.04,0.02
	c0,0,0,0,0,0.01v0c-0.01,0.01-0.01,0.02-0.02,0.03c-0.03,0.04-0.09,0.05-0.18,0.06c-0.08,0.01-0.51,0.01-0.59,0.01
	c-0.02,0-0.03-0.01-0.03-0.04v-0.97c0-0.04,0.01-0.05,0.03-0.05l0.57,0.01c0.14,0,0.21,0.06,0.23,0.12
	c0.02,0.05,0.02,0.14,0.02,0.17c0,0.02,0.02,0.04,0.04,0.04c0.02,0,0.04-0.01,0.04-0.03c0,0,0,0,0-0.01v0c0,0,0.05-0.48,0.05-0.51
	c0-0.02-0.01-0.03-0.03-0.03c-0.02,0-0.04,0.02-0.06,0.02c-0.04,0.01-0.08,0.01-0.15,0.01h-1.51c-0.05,0-0.08,0.01-0.08,0.04
	c0,0.02,0.03,0.03,0.06,0.03c0.05,0,0.11,0,0.14,0.01c0.12,0.03,0.15,0.09,0.16,0.22c0.01,0.12,0.01,2.17-0.01,2.34
	c-0.02,0.11-0.03,0.2-0.11,0.21c-0.04,0.01-0.08,0.02-0.13,0.02c-0.04,0-0.05,0.01-0.05,0.03c0,0.03,0.03,0.04,0.08,0.04h1.03
	c0.06,0,0.08-0.01,0.08-0.04c0-0.02-0.01-0.03-0.06-0.03c-0.05,0-0.13-0.01-0.18-0.02c-0.11-0.02-0.13-0.1-0.14-0.21
	c-0.02-0.16-0.02-1.14-0.02-1.14C61.65,16.22,61.65,16.21,61.67,16.21"/>
<path class="st0" d="M49.48,15.92l-0.1-0.08c-0.31-0.25-0.39-0.38-0.39-0.56c0-0.23,0.17-0.4,0.44-0.4c0.24,0,0.35,0.12,0.4,0.19
	c0.08,0.1,0.1,0.22,0.1,0.26c0,0.02,0,0.03,0.01,0.04c0,0.01,0,0.01,0,0.01v0c0,0,0.01,0.01,0.01,0.01h0
	c0.01,0.01,0.01,0.01,0.02,0.01c0.02,0,0.04-0.02,0.04-0.04l0.01-0.52v-0.03c0-0.03-0.02-0.04-0.05-0.05
	c-0.1-0.03-0.25-0.07-0.49-0.07c-0.51,0-0.85,0.31-0.85,0.73c0,0.32,0.14,0.59,0.55,0.92l0.17,0.14c0.31,0.25,0.36,0.43,0.36,0.62
	c0,0.21-0.16,0.45-0.49,0.45c-0.23,0-0.45-0.11-0.53-0.39c-0.02-0.07-0.03-0.15-0.03-0.2c0-0.01,0-0.02,0-0.03
	c0-0.02-0.02-0.04-0.04-0.04c-0.02,0-0.04,0.02-0.04,0.04l-0.02,0.58c0,0.08,0.01,0.1,0.07,0.13c0.16,0.07,0.32,0.1,0.54,0.1
	c0.19,0,0.4-0.04,0.59-0.16c0.26-0.18,0.35-0.45,0.35-0.68C50.08,16.54,49.92,16.28,49.48,15.92"/>
</svg>
