<?xml version="1.0" encoding="utf-8"?>
<!-- Generator: Adobe Illustrator 28.0.0, SVG Export Plug-In . SVG Version: 6.00 Build 0)  -->
<svg version="1.1" id="Layer_1" xmlns="http://www.w3.org/2000/svg" xmlns:xlink="http://www.w3.org/1999/xlink" x="0px" y="0px"
	 viewBox="0 0 78.23 20.96" style="enable-background:new 0 0 78.23 20.96;" xml:space="preserve">
<style type="text/css">
	.st0{fill:#8D8D90;}
	.st1{fill:#998247;}
</style>
<path class="st0" d="M20.53,10.41c0-0.21-0.17-0.38-0.38-0.38c-0.03,0-0.06,0-0.09,0.01c-3.32,0.69-6.78,0.97-10.33,0.77
	c-1.09-0.06-2.17,0-3.23,0.08c-0.08,0.01-0.16,0.02-0.24,0.03c-0.85,0.12-1.66,0.49-2.29,1.11c-0.56,0.55-0.95,1.25-1.12,2.02
	c-0.2,0.92-0.06,1.87,0.33,2.72c0.38,0.83,0.98,1.54,1.73,2.06c0.82,0.55,1.71,0.98,2.65,1.26c0.59,0.18,1.12,0.29,1.74,0.37
	c0.01-0.24,0.36-0.61,0.38-0.78c0.01-0.18-0.12-0.33-0.3-0.35c-0.97,0.04-1.69,0.02-2.6-0.33c-0.94-0.35-1.78-0.93-2.45-1.67
	c-0.32-0.35-0.59-0.75-0.76-1.2c-0.17-0.45-0.24-0.93-0.21-1.41c0.09-1.61,1.34-2.97,2.94-3.2c0.88-0.13,1.8,0.1,2.52,0.63
	c0.38,0.27,0.7,0.63,0.93,1.03c0.27,0.46,0.49,0.93,0.64,1.44c0.32,1.05,0.35,2.2,0.22,3.28c-0.06,0.46-0.16,0.92-0.29,1.36
	c-0.07,0.25-0.16,0.5-0.26,0.75c-0.02,0.04-0.03,0.09-0.03,0.14c0,0.21,0.16,0.37,0.36,0.38c0.03,0,0.07,0,0.09,0
	c2.46,0,4.71-0.88,6.45-2.35c0,0,0,0,0.01-0.01c0.07-0.07,0.11-0.16,0.11-0.27c0-0.08-0.03-0.14-0.06-0.21
	c-0.65-1.13-2.07-2.77-2.07-2.77s1.61,1.44,2.76,2.07c0.06,0.03,0.13,0.06,0.21,0.06c0.1,0,0.2-0.04,0.26-0.11
	c0,0,0.01-0.01,0.01-0.01c1.46-1.74,2.35-3.99,2.35-6.44C20.53,10.47,20.53,10.44,20.53,10.41"/>
<path class="st1" d="M2.39,15c-0.4-0.88-0.64-1.83-0.7-2.79c-0.01-0.13-0.01-0.3-0.01-0.43c0-0.18-0.14-0.33-0.32-0.33
	c-0.18,0-0.56,0.33-0.83,0.33c0.28,2.12,1.23,4.12,2.71,5.66c0.73,0.75,1.62,1.34,2.64,1.61c0.88,0.24,1.8,0.13,2.61-0.28
	c0.39-0.19,0.74-0.46,1.04-0.77c0.31-0.34,0.55-0.75,0.78-1.15c0.24-0.43,0.44-0.87,0.62-1.32c0.2-0.48,0.36-0.97,0.57-1.44
	c0.82-1.78,1.97-3.41,3.52-4.62c0.76-0.59,1.59-1.09,2.46-1.48c0.45-0.2,0.91-0.37,1.38-0.51c0.22-0.07,0.45-0.13,0.68-0.18
	c0.2-0.06,0.32-0.28,0.25-0.48c-0.57-1.44-1.48-2.74-2.63-3.77c-0.01-0.01-0.02-0.02-0.03-0.02c-0.06-0.06-0.15-0.1-0.25-0.1
	c-0.1,0-0.19,0.06-0.27,0.12c-1.85,1.29-3.21,3.43-3.21,3.43s0.72-1.83,2.26-4.09c0.04-0.06,0.06-0.12,0.06-0.19
	c0-0.13-0.06-0.24-0.16-0.31c-0.01-0.01-0.02-0.02-0.04-0.02c-0.95-0.56-1.99-0.96-3.07-1.17c-0.79-0.16-1.6-0.22-2.4-0.19h-0.01
	h-0.01C9.83,0.5,9.67,0.67,9.67,0.87c-0.1,2.63,0.41,7.16,0.41,7.16S9.16,3.56,8.26,1.09C8.2,0.94,8.07,0.83,7.9,0.83
	c-0.03,0-0.05,0-0.07,0.01c0,0,0,0-0.01,0c-0.06,0.02-0.13,0.04-0.2,0.06C6.11,1.34,4.71,2.15,3.57,3.24C3.37,3.42,3.19,3.62,3,3.82
	C3,3.83,3,3.83,2.99,3.84c-0.06,0.07-0.1,0.16-0.1,0.25c0,0.1,0.04,0.21,0.11,0.27c1.97,1.5,3.43,3.21,3.43,3.21
	S4.57,6.19,2.34,5.31C2.28,5.28,2.22,5.25,2.15,5.25c-0.13,0-0.24,0.07-0.31,0.17c0,0,0,0,0,0.01c-0.32,0.55-0.6,1.12-0.81,1.72
	C0.75,7.91,0.58,8.71,0.5,9.51c-0.02,0.2-0.03,0.42,0.18,0.53c0.08,0.05,0.18,0.06,0.27,0.04c0.14-0.03,0.27-0.06,0.41-0.08
	c0.53-0.09,1.07-0.13,1.6-0.12c1.07,0.01,2.14,0.21,3.15,0.58c0.93,0.35,1.77,0.89,2.42,1.65c1.21,1.44,1.86,3.91,0.46,5.44
	c-0.64,0.7-1.58,1.04-2.52,0.96c-0.49-0.05-0.91-0.21-1.34-0.44c-0.38-0.21-0.75-0.45-1.08-0.74C3.33,16.69,2.78,15.87,2.39,15"/>
<path class="st0" d="M45.24,9.84c0-0.16,0.92-0.04,1.35,0.1c0.34,0.11,0.89,0.26,1.47,0.71c0.33,0.26,0.73,0.71,0.73,1.25
	c0,0.54-0.32,0.81-0.72,0.81c-0.21-0.03-0.44-0.16-0.63-0.35c-0.2-0.2-0.35-0.59-0.92-1.25C45.88,10.38,45.24,9.95,45.24,9.84"/>
<path class="st0" d="M44.63,4.53l0-1.03l0.45-0.14v0c0.06-0.01,0.1-0.06,0.1-0.12c0-0.07-0.05-0.12-0.11-0.13l0,0l-2.08-0.31v1.74
	h-4.54l0.14,0.31h10.73c0,0,0.13-0.19,0-0.31c-0.13-0.12-1.27-0.83-1.27-0.83l-0.76,0.83H44.63z"/>
<path class="st0" d="M42.78,10.26L42.78,10.26l-1.85-0.65c-0.68,1.13-1.31,2.04-2.31,2.89v0c-0.02,0.02-0.04,0.04-0.04,0.07
	c0,0.05,0.04,0.1,0.1,0.1c0.01,0,0.02,0,0.04-0.01v0l0,0c0.88-0.32,2.15-1.13,3.65-2.15l0.37,0c0.07,0,0.13-0.06,0.13-0.13
	C42.87,10.32,42.83,10.27,42.78,10.26"/>
<path class="st0" d="M62.92,6.02c-0.17-0.16-1.4-0.92-1.4-0.92l-0.77,0.92h-2.74l0-2.52l0.46-0.14l0,0c0.06-0.02,0.1-0.06,0.1-0.12
	c0-0.07-0.05-0.12-0.11-0.13v0l-2.17-0.31v3.23h-4.17l0.14,0.31h4.03c-0.02,1.54-0.38,2.74-0.91,3.61c-0.66,1.1-1.66,2.12-3.28,3.01
	l0,0c-0.01,0-0.01,0-0.02,0.01v0c-0.02,0.02-0.04,0.04-0.04,0.08c0,0.05,0.05,0.1,0.1,0.1c0.01,0,0.02,0,0.03-0.01v0
	c1.96-0.56,3.53-1.45,4.34-2.51c0.7-0.92,1.18-1.95,1.33-3.28c0.14,1.19,0.44,2.14,0.89,2.85c0.57,1.02,1.51,1.99,2.78,2.78
	c0.01,0.01,0.02,0.01,0.03,0.02C61.54,13,61.55,13,61.57,13c0.03,0,0.05-0.01,0.07-0.03c0.03-0.02,0.05-0.05,0.05-0.09
	c0.08-0.47,0.7-0.88,1.17-1.05c-1.51-0.84-2.74-1.85-3.34-2.61c-0.72-0.91-1.22-1.88-1.49-2.9h4.88
	C62.92,6.33,63.09,6.18,62.92,6.02"/>
<path class="st0" d="M68.61,3.2c-0.01,0.02-0.01,0.07,0.02,0.11c0.13,0.22,0.48,0.73,0.68,1.06c0.24,0.42,0.26,0.57,0.41,0.72
	c0.13,0.13,0.59,0.24,0.86,0.05c0.28-0.19,0.31-0.57,0.19-0.86c-0.11-0.29-0.53-0.76-0.99-0.94C69.33,3.17,68.69,3.06,68.61,3.2"/>
<path class="st0" d="M70.85,2.84c-0.02,0.02-0.04,0.08,0,0.12c0.15,0.19,0.46,0.58,0.7,0.97c0.31,0.49,0.35,0.78,0.51,0.95
	c0.26,0.26,0.73,0.21,0.89,0.05c0.23-0.23,0.3-0.61,0.22-0.91c-0.14-0.46-0.56-0.85-1.15-1.05C71.49,2.79,70.95,2.74,70.85,2.84"/>
<path class="st0" d="M68.46,4.66c0.25,0.04,0.41,1.01,0.16,1.87c-0.2,0.71-0.69,1.02-1.23,0.9c-0.42-0.09-0.56-0.46-0.43-0.89
	c0.11-0.38,0.46-0.66,0.7-0.9c0.25-0.24,0.55-0.65,0.62-0.85C68.31,4.71,68.36,4.64,68.46,4.66"/>
<path class="st0" d="M73.05,9.59v2.68c0,0.65-1.26,0.85-1.65,0.85c-0.2,0-0.19-0.19-0.28-0.36c-0.07-0.14-0.3-0.34-1.56-0.43
	l-0.11-0.25h2l0-2.49h-4.49l-0.15-0.31h4.64V8.06l1.91,0.21c0.18,0.09-0.04,0.4-0.32,0.51v0.49h2.43l0.86-0.93
	c0,0,1.03,0.77,1.2,0.93c0.16,0.16,0,0.31,0,0.31H73.05z"/>
<path class="st0" d="M77.88,5.71c0-0.05-0.03-0.1-0.07-0.12l-0.01,0l-1.66-0.83l-0.46,0.66l-1.59-0.01l1.85-1.63l0.52-0.06
	c0.07,0,0.13-0.06,0.13-0.13c0-0.05-0.04-0.1-0.08-0.12L74.6,2.79c-0.3,0.76-0.67,1.69-1.11,2.63h-4.87l-0.01,0.31l7.17,0.02
	L75.3,7.26l0.19,0.06l1.83-1.44l0.44-0.04v0C77.83,5.83,77.88,5.78,77.88,5.71"/>
<path class="st0" d="M75.8,7.26L75.8,7.26l-1.59-1.04l-0.47,0.5h-4.82l0.14,0.31h4.59l-0.88,1.42c0.15,0.03,0.02,0.29,0.27,0.34
	l2.2-1.33l0.47,0.03v0c0,0,0.01,0,0.01,0c0.07,0,0.13-0.06,0.13-0.13C75.86,7.32,75.84,7.28,75.8,7.26"/>
<path class="st0" d="M32.52,10.65c-0.78-0.35-1.39-0.78-1.84-1.31h2v0.47l1.55-0.23v-3.2l0.35-0.16c0.06-0.02,0.1-0.08,0.1-0.15
	c0-0.06-0.04-0.12-0.09-0.15l-1.5-0.85l-0.5,0.65h-2.01V4.58h4.64c0,0,0.15-0.18,0-0.32c-0.15-0.14-1.18-0.74-1.18-0.74l-0.66,0.74
	h-2.8V3.5l0.45-0.14v0c0.06-0.02,0.1-0.06,0.1-0.12c0-0.07-0.05-0.12-0.11-0.13l0,0l-2.04-0.31v1.46h-4.63l0.13,0.32h4.5v1.14h-2.1
	l-1.48-0.57v4.66l1.55-0.23V9.34h1.57c-1.21,1.5-2.64,2.43-4.09,3.26c-0.03,0.02-0.05,0.05-0.05,0.09c0,0.06,0.04,0.1,0.1,0.1
	c0.01,0,0.02,0,0.03-0.01c1.32-0.43,2.84-0.84,4.48-2.15v2.51l1.6-0.22V9.79c0.24,0.51,0.51,0.83,0.83,1.18
	c0.7,0.8,1.67,1.32,2.93,1.79c0.2-0.64,0.48-1.12,0.96-1.27l0.08-0.12C34.36,11.16,33.41,11.08,32.52,10.65 M28.99,9.03h-2.03v-1.4
	h2.03V9.03z M28.99,7.32h-2.03V6.03h2.03V7.32z M30.59,6.03h2.09v1.29h-2.09V6.03z M30.59,7.63h2.09v1.4h-2.09V7.63z"/>
<path class="st0" d="M48.29,6.13L48.29,6.13l-1.55-0.88l-0.5,0.65h-4.76l-1.53-0.57v4.05l1.6-0.23V8.89h1.54l0,3.19h-2l0.11,0.25
	c1.26,0.1,1.48,0.29,1.55,0.43c0.09,0.17,0.08,0.36,0.28,0.36c0.38,0,1.65-0.21,1.65-0.85V8.89h1.64v0.45l1.59-0.23V6.65V6.6
	l0.36-0.17c0.06-0.02,0.1-0.08,0.1-0.15C48.37,6.21,48.34,6.16,48.29,6.13 M46.32,8.57h-4.78V6.22h4.78V8.57z"/>
<path class="st0" d="M29.32,16.31c0.01,0,0.02-0.01,0.02-0.03V16.2c0-0.59,0-0.7-0.01-0.83c-0.01-0.13-0.04-0.19-0.16-0.22
	c-0.03-0.01-0.09-0.01-0.14-0.01c-0.04,0-0.06-0.01-0.06-0.03c0-0.03,0.03-0.03,0.08-0.03h1c0.05,0,0.08,0.01,0.08,0.03
	c0,0.03-0.02,0.03-0.07,0.03c-0.03,0-0.06,0.01-0.11,0.01c-0.1,0.02-0.13,0.09-0.14,0.22c-0.01,0.12-0.01,2.17,0.01,2.34
	c0.01,0.11,0.04,0.19,0.14,0.21c0.05,0.01,0.13,0.01,0.19,0.01c0.04,0,0.06,0.01,0.06,0.03c0,0.03-0.03,0.04-0.07,0.04H29.1
	c-0.05,0-0.08-0.01-0.08-0.04c0-0.02,0.01-0.03,0.06-0.03c0.05,0,0.1-0.01,0.13-0.01c0.07-0.01,0.09-0.1,0.11-0.22
	c0.02-0.16,0.02-0.47,0.02-0.83v-0.34c0-0.02-0.01-0.02-0.02-0.02h-1.41c-0.01,0-0.02,0-0.02,0.02v0.34c0,0.36,0,0.66,0.02,0.83
	c0.01,0.11,0.03,0.19,0.14,0.21c0.05,0.01,0.13,0.01,0.19,0.01c0.04,0,0.06,0.01,0.06,0.03c0,0.03-0.03,0.04-0.07,0.04h-1.04
	c-0.05,0-0.08-0.01-0.08-0.04c0-0.02,0.02-0.03,0.06-0.03c0.06,0,0.1-0.01,0.13-0.01c0.07-0.01,0.09-0.1,0.11-0.22
	c0.02-0.16,0.02-2.21,0.01-2.34c-0.01-0.13-0.04-0.19-0.16-0.22c-0.03-0.01-0.09-0.01-0.14-0.01c-0.04,0-0.06-0.01-0.06-0.03
	c0-0.03,0.03-0.03,0.08-0.03h1c0.05,0,0.08,0.01,0.08,0.03c0,0.03-0.02,0.03-0.07,0.03c-0.03,0-0.06,0.01-0.11,0.01
	c-0.1,0.02-0.13,0.09-0.14,0.22c-0.01,0.12-0.01,0.24-0.01,0.83v0.08c0,0.02,0.01,0.03,0.02,0.03H29.32z"/>
<path class="st0" d="M33.83,14.5c-0.01-0.17-0.05-0.26-0.21-0.29c-0.04-0.01-0.12-0.02-0.19-0.02c-0.05,0-0.08-0.01-0.08-0.04
	c0-0.04,0.04-0.05,0.11-0.05h1.32c0.07,0,0.11,0.01,0.11,0.05c0,0.03-0.03,0.04-0.08,0.04c-0.05,0-0.08,0.01-0.14,0.02
	c-0.13,0.03-0.17,0.12-0.18,0.29c-0.01,0.17-0.01,1.83-0.01,1.83c0,0.75,0.14,1.07,0.38,1.27c0.22,0.19,0.45,0.21,0.62,0.21
	c0.22,0,0.48-0.07,0.68-0.28c0.27-0.28,0.29-0.75,0.29-1.28c0,0,0-1.58-0.01-1.75c-0.01-0.17-0.05-0.26-0.21-0.29
	c-0.04-0.01-0.12-0.02-0.18-0.02s-0.08-0.01-0.08-0.04c0-0.04,0.03-0.05,0.1-0.05h1.13c0.07,0,0.1,0.01,0.1,0.05
	c0,0.03-0.03,0.04-0.09,0.04c-0.05,0-0.08,0.01-0.14,0.02c-0.13,0.03-0.17,0.12-0.18,0.29c-0.01,0.17-0.01,1.65-0.01,1.65
	c0,0.58-0.05,1.19-0.47,1.56c-0.35,0.32-0.7,0.37-1.02,0.37c-0.26,0-0.73-0.02-1.09-0.36c-0.25-0.24-0.44-0.62-0.44-1.37
	C33.84,16.36,33.84,14.67,33.83,14.5"/>
<path class="st0" d="M50.94,15.38c-0.01-0.13-0.04-0.2-0.13-0.22c-0.04-0.01-0.09-0.02-0.13-0.02c-0.04,0-0.06-0.01-0.06-0.04
	c0-0.02,0.03-0.03,0.09-0.03h0.93c0.05,0,0.08,0.01,0.08,0.03c0,0.03-0.02,0.04-0.06,0.04c-0.04,0-0.07,0-0.11,0.01
	c-0.1,0.02-0.13,0.09-0.14,0.22c-0.01,0.12-0.01,2.19,0.01,2.36c0.01,0.11,0.04,0.18,0.15,0.19c0.05,0.01,0.13,0.01,0.19,0.01
	c0.04,0,0.06,0.01,0.06,0.03c0,0.03-0.03,0.04-0.07,0.04h-1.04c-0.05,0-0.08-0.01-0.08-0.04c0-0.02,0.01-0.03,0.06-0.03
	c0.06,0,0.1-0.01,0.13-0.01c0.07-0.02,0.1-0.08,0.11-0.19C50.95,17.57,50.95,15.5,50.94,15.38"/>
<path class="st0" d="M55.78,17.01c0-0.21-0.04-0.29-0.09-0.41c-0.02-0.06-0.52-0.92-0.65-1.12c-0.09-0.15-0.18-0.24-0.26-0.29
	c-0.05-0.03-0.11-0.05-0.15-0.05c-0.03,0-0.05-0.01-0.05-0.03c0-0.02,0.02-0.04,0.07-0.04h0.86c0.04,0,0.06,0.01,0.06,0.04
	c0,0.02-0.03,0.03-0.08,0.04c-0.03,0.01-0.05,0.04-0.05,0.07c0,0.03,0.02,0.08,0.04,0.13c0.05,0.12,0.57,1.05,0.63,1.16
	c0.03-0.09,0.5-0.95,0.55-1.07c0.04-0.09,0.05-0.15,0.05-0.2c0-0.04-0.01-0.08-0.08-0.1c-0.03-0.01-0.07-0.02-0.07-0.04
	c0-0.03,0.02-0.04,0.06-0.04h0.74c0.04,0,0.07,0.01,0.07,0.03c0,0.03-0.03,0.04-0.07,0.04c-0.04,0-0.1,0.02-0.16,0.05
	c-0.08,0.04-0.12,0.08-0.2,0.19c-0.12,0.16-0.64,1.07-0.71,1.24c-0.06,0.14-0.06,0.26-0.06,0.39c0,0,0,0.54,0.01,0.71
	c0.01,0.11,0.04,0.2,0.15,0.21c0.05,0.01,0.13,0.01,0.18,0.01c0.04,0,0.06,0.01,0.06,0.03c0,0.03-0.03,0.04-0.08,0.04h-1.03
	c-0.05,0-0.08-0.01-0.08-0.04c0-0.02,0.02-0.03,0.06-0.03c0.05,0,0.1-0.01,0.13-0.01c0.07-0.02,0.11-0.1,0.12-0.21
	C55.78,17.55,55.78,17.01,55.78,17.01"/>
<path class="st0" d="M58.06,16.55c0-0.67,0.42-1.53,1.52-1.53c0.92,0,1.49,0.57,1.49,1.45c0,0.89-0.59,1.6-1.53,1.6
	C58.49,18.07,58.06,17.23,58.06,16.55 M60.56,16.62c0-0.87-0.51-1.41-1.11-1.41c-0.42,0-0.88,0.25-0.88,1.22
	c0,0.81,0.46,1.45,1.16,1.45C59.99,17.88,60.56,17.74,60.56,16.62"/>
<path class="st0" d="M66.51,16.55c0-0.67,0.42-1.53,1.53-1.53c0.92,0,1.49,0.57,1.49,1.45c0,0.89-0.59,1.6-1.53,1.6
	C66.94,18.07,66.51,17.23,66.51,16.55 M69.01,16.62c0-0.87-0.51-1.41-1.11-1.41c-0.42,0-0.88,0.25-0.88,1.22
	c0,0.81,0.45,1.45,1.16,1.45C68.44,17.88,69.01,17.74,69.01,16.62"/>
<path class="st0" d="M72.2,15.14c0.04,0,0.11,0.02,0.15,0.05c0.07,0.04,0.16,0.14,0.26,0.29c0.13,0.2,0.62,1.06,0.65,1.12
	c0.05,0.11,0.08,0.2,0.08,0.41c0,0,0,0.54-0.01,0.71c-0.01,0.11-0.04,0.2-0.11,0.21c-0.04,0.01-0.08,0.01-0.13,0.01
	c-0.04,0-0.06,0.01-0.06,0.03c0,0.03,0.03,0.04,0.08,0.04h1.02c0.05,0,0.08-0.01,0.08-0.04c0-0.02-0.02-0.03-0.06-0.03
	c-0.05,0-0.13-0.01-0.18-0.01c-0.11-0.01-0.14-0.1-0.15-0.21c-0.01-0.16-0.01-0.71-0.01-0.71c0-0.13,0-0.25,0.06-0.39
	c0.07-0.17,0.59-1.08,0.71-1.24c0.08-0.11,0.12-0.15,0.2-0.19c0.06-0.03,0.13-0.05,0.16-0.05c0.04,0,0.07-0.01,0.07-0.04
	c0-0.02-0.03-0.03-0.07-0.03H74.2c-0.04,0-0.06,0.01-0.06,0.03c0,0.02,0.03,0.03,0.07,0.04c0.06,0.01,0.08,0.06,0.08,0.1
	c0,0.05-0.02,0.12-0.05,0.2c-0.05,0.12-0.52,0.98-0.55,1.07c-0.06-0.11-0.58-1.04-0.63-1.16C73.02,15.3,73,15.25,73,15.22
	c0-0.03,0.02-0.06,0.05-0.07c0.06-0.02,0.08-0.02,0.08-0.04c0-0.02-0.02-0.03-0.05-0.03h-1.69c-0.04,0-0.06,0.01-0.06,0.03
	c0,0.02,0.01,0.03,0.05,0.04c0.04,0.01,0.05,0.04,0.05,0.08c0,0.06-0.08,0.16-0.18,0.29c-0.11,0.13-0.65,0.71-0.77,0.85h-0.02V16.2
	c0-0.59,0-0.7,0.01-0.83c0.01-0.13,0.04-0.2,0.14-0.22c0.04-0.01,0.07-0.01,0.1-0.01c0.03,0,0.05-0.01,0.05-0.03
	c0-0.03-0.03-0.03-0.08-0.03h-0.96c-0.06,0-0.08,0.01-0.08,0.03c0,0.03,0.02,0.03,0.06,0.03c0.05,0,0.12,0.01,0.15,0.01
	c0.12,0.03,0.15,0.09,0.16,0.22C70,15.5,70,17.55,69.98,17.71c-0.02,0.11-0.04,0.2-0.11,0.21c-0.04,0.01-0.08,0.01-0.13,0.01
	c-0.04,0-0.06,0.01-0.06,0.03c0,0.03,0.03,0.04,0.07,0.04h1c0.04,0,0.07-0.01,0.07-0.04c0-0.02-0.02-0.03-0.05-0.03
	c-0.05,0-0.13-0.01-0.18-0.01c-0.09-0.01-0.13-0.1-0.14-0.21c-0.01-0.17-0.01-0.48-0.01-0.83v-0.35h0.02l0.04,0.06
	c0.08,0.11,0.8,1.01,0.97,1.16c0.16,0.15,0.26,0.24,0.46,0.25c0.08,0.01,0.14,0.01,0.25,0.01h0.32c0.07,0,0.09-0.01,0.09-0.04
	c0-0.02-0.02-0.03-0.05-0.03c-0.04,0-0.12-0.01-0.23-0.06c-0.2-0.08-0.36-0.26-0.53-0.42c-0.14-0.14-0.87-0.96-1-1.15
	c0.12-0.14,0.68-0.72,0.8-0.84c0.16-0.16,0.28-0.24,0.4-0.29C72.06,15.16,72.15,15.14,72.2,15.14"/>
<path class="st0" d="M74.7,16.55c0-0.67,0.42-1.53,1.52-1.53c0.92,0,1.49,0.57,1.49,1.45c0,0.89-0.59,1.6-1.53,1.6
	C75.13,18.07,74.7,17.23,74.7,16.55 M77.2,16.62c0-0.87-0.51-1.41-1.11-1.41c-0.42,0-0.88,0.25-0.88,1.22
	c0,0.81,0.45,1.45,1.16,1.45C76.63,17.88,77.2,17.74,77.2,16.62"/>
<path class="st0" d="M49.43,18.35c-0.33-0.02-0.63-0.12-0.89-0.38c-0.25-0.25-0.68-0.86-0.93-1.33c0.37-0.32,0.49-0.58,0.49-0.87
	c0-0.26-0.15-0.46-0.25-0.53c-0.2-0.14-0.45-0.17-0.68-0.17h-1.03c-0.05,0-0.08,0.01-0.08,0.04c0,0.03,0.02,0.03,0.06,0.03
	c0.05,0,0.11,0.01,0.14,0.01c0.12,0.03,0.15,0.09,0.16,0.22c0.01,0.12,0.01,0.24,0.01,0.82v0.69c0,0.35,0,0.66-0.02,0.83
	c-0.01,0.11-0.03,0.2-0.11,0.21c-0.03,0.01-0.08,0.01-0.13,0.01c-0.05,0-0.06,0.01-0.06,0.03c0,0.03,0.03,0.04,0.07,0.04h0.99
	c0.05,0,0.07-0.01,0.07-0.04c0-0.02-0.02-0.03-0.05-0.03c-0.04,0-0.12-0.01-0.18-0.01c-0.11-0.02-0.13-0.1-0.14-0.21
	c-0.02-0.16-0.02-0.47-0.02-0.83v-0.05c0-0.02,0.01-0.03,0.03-0.03l0.32,0.01c0.03,0,0.05,0,0.07,0.03
	c0.04,0.09,0.23,0.52,0.39,0.79c0.17,0.26,0.33,0.47,0.49,0.6c0.2,0.16,0.41,0.22,0.66,0.25c0.32,0.03,0.54,0,0.6-0.02
	c0.05-0.01,0.12-0.03,0.12-0.07C49.55,18.34,49.49,18.35,49.43,18.35 M47.45,16.55c-0.07,0.05-0.11,0.07-0.26,0.07
	c-0.09,0-0.2-0.01-0.28-0.04c-0.03-0.01-0.03-0.03-0.03-0.07v-1.18c0-0.03,0.01-0.05,0.03-0.06c0.04-0.01,0.1-0.01,0.2-0.01
	c0.22,0,0.57,0.16,0.57,0.71C47.66,16.29,47.56,16.47,47.45,16.55"/>
<path class="st0" d="M26.83,15.05c-0.02,0-0.04,0.01-0.1,0.02h-2.09c-0.09-0.01-0.13-0.05-0.16-0.05c-0.02,0-0.03,0.03-0.05,0.07
	c-0.01,0.04-0.08,0.46-0.08,0.46c0,0,0,0.01,0,0.01c0,0.02,0.02,0.04,0.04,0.04c0.02,0,0.03-0.01,0.04-0.02v0
	c0.01-0.03,0.03-0.1,0.07-0.16c0.05-0.09,0.14-0.1,0.36-0.11h0.55c0,0,0,2.24-0.02,2.4c-0.01,0.11-0.03,0.2-0.11,0.21
	c-0.03,0.01-0.08,0.01-0.13,0.01c-0.04,0-0.06,0.01-0.06,0.03c0,0.03,0.03,0.04,0.07,0.04h1.05c0.04,0,0.07-0.01,0.07-0.04
	c0-0.02-0.02-0.03-0.06-0.03c-0.06,0-0.14-0.01-0.19-0.01c-0.11-0.02-0.14-0.1-0.15-0.21c-0.02-0.17-0.02-2.41-0.02-2.41h0.46
	c0.33,0.01,0.43,0.11,0.43,0.21l0.01,0.08c0,0.02,0.02,0.04,0.04,0.04c0.02,0,0.04-0.02,0.04-0.04c0,0,0-0.42,0-0.47
	C26.86,15.07,26.86,15.05,26.83,15.05"/>
<path class="st0" d="M54.42,15.05c-0.02,0-0.04,0.01-0.1,0.02h-2.09c-0.09-0.01-0.13-0.05-0.16-0.05c-0.02,0-0.03,0.03-0.05,0.07
	c-0.01,0.04-0.08,0.46-0.08,0.46h0c0,0,0,0.01,0,0.01c0,0.02,0.02,0.04,0.04,0.04c0.02,0,0.03-0.01,0.04-0.02v0
	c0.01-0.03,0.03-0.1,0.07-0.16c0.06-0.09,0.14-0.1,0.36-0.11H53c0,0,0,2.24-0.02,2.4c-0.01,0.11-0.03,0.2-0.11,0.21
	c-0.03,0.01-0.08,0.01-0.13,0.01c-0.04,0-0.06,0.01-0.06,0.03c0,0.03,0.03,0.04,0.07,0.04h1.05c0.04,0,0.07-0.01,0.07-0.04
	c0-0.02-0.02-0.03-0.06-0.03c-0.06,0-0.14-0.01-0.19-0.01c-0.11-0.02-0.13-0.1-0.14-0.21c-0.02-0.17-0.02-2.41-0.02-2.41h0.47
	c0.33,0.01,0.43,0.11,0.43,0.21l0.01,0.08c0,0.02,0.02,0.04,0.04,0.04c0.02,0,0.04-0.02,0.04-0.04c0,0,0-0.42,0-0.47
	C54.45,15.07,54.44,15.05,54.42,15.05"/>
<path class="st0" d="M67,14.06c-0.02,0-0.06,0.02-0.13,0.04h-2.79c-0.12-0.01-0.17-0.07-0.21-0.07c-0.03,0-0.04,0.03-0.06,0.1
	c-0.01,0.05-0.11,0.62-0.11,0.62h0c0,0,0,0.01,0,0.01c0,0.03,0.02,0.05,0.05,0.05c0.02,0,0.04-0.01,0.05-0.03v0
	c0.02-0.04,0.04-0.13,0.09-0.21c0.07-0.11,0.19-0.14,0.48-0.15h0.74c0,0,0,3-0.02,3.21c-0.01,0.15-0.04,0.26-0.14,0.28
	c-0.04,0.01-0.11,0.02-0.18,0.02c-0.06,0-0.08,0.02-0.08,0.04c0,0.03,0.03,0.05,0.1,0.05h1.39c0.06,0,0.09-0.02,0.09-0.05
	c0-0.03-0.03-0.04-0.08-0.04c-0.07,0-0.18-0.01-0.25-0.02c-0.15-0.02-0.18-0.13-0.19-0.28c-0.03-0.22-0.03-3.22-0.03-3.22h0.62
	c0.44,0.01,0.56,0.15,0.58,0.29l0.01,0.11c0,0.03,0.02,0.05,0.05,0.05c0.03,0,0.05-0.02,0.05-0.05c0,0,0-0.56,0.01-0.63
	C67.05,14.09,67.04,14.06,67,14.06"/>
<path class="st0" d="M32.26,17.46c0-0.02-0.02-0.04-0.04-0.04c-0.02,0-0.03,0.01-0.04,0.03c-0.04,0.16-0.13,0.26-0.22,0.31
	c-0.1,0.05-0.25,0.05-0.35,0.05c-0.38,0-0.39-0.05-0.39-0.32c0-0.11,0-0.91,0-0.91c0-0.02,0-0.04,0.02-0.04
	c0.09,0,0.46,0.01,0.53,0.01c0.14,0.02,0.19,0.07,0.21,0.15c0.01,0.05,0.01,0.1,0.01,0.14c0,0.02,0.02,0.04,0.04,0.04
	c0.02,0,0.04-0.02,0.04-0.03h0v0v0l0.05-0.57h0c0,0,0,0,0,0c0-0.02-0.02-0.04-0.04-0.04c-0.01,0-0.02,0.01-0.03,0.02c0,0,0,0,0,0.01
	c-0.01,0.01-0.01,0.02-0.02,0.03c-0.03,0.04-0.09,0.05-0.18,0.06c-0.09,0.01-0.51,0.01-0.59,0.01c-0.02,0-0.03-0.02-0.03-0.04v-0.98
	c0-0.03,0.01-0.04,0.03-0.04c0.07,0,0.46,0.01,0.52,0.02c0.18,0.02,0.22,0.07,0.25,0.14c0.02,0.04,0.02,0.13,0.02,0.15
	c0,0.02,0.02,0.04,0.04,0.04c0.02,0,0.04-0.02,0.04-0.03c0.01-0.06,0.04-0.49,0.04-0.52c0-0.02,0-0.03-0.02-0.03
	s-0.04,0.01-0.06,0.01c-0.03,0-0.09,0.01-0.16,0.01h-1.46c-0.06,0-0.08,0.01-0.08,0.03c0,0.03,0.02,0.03,0.06,0.03
	c0.05,0,0.11,0,0.15,0.01c0.12,0.03,0.15,0.09,0.16,0.22c0.01,0.12,0.01,2.17-0.01,2.34c-0.01,0.11-0.03,0.2-0.11,0.21
	c-0.03,0.01-0.08,0.01-0.13,0.01c-0.04,0-0.06,0.01-0.06,0.03c0,0.03,0.03,0.04,0.07,0.04H32c0.14,0,0.18,0.01,0.2-0.09
	C32.21,17.85,32.26,17.47,32.26,17.46L32.26,17.46C32.26,17.46,32.26,17.46,32.26,17.46"/>
<path class="st0" d="M44.11,15.14c0.05,0,0.11,0.01,0.14,0.01c0.12,0.03,0.15,0.09,0.16,0.22c0.01,0.12,0.01,2.17-0.01,2.34
	c-0.02,0.11-0.03,0.2-0.11,0.21c-0.03,0.01-0.08,0.01-0.13,0.01c-0.04,0-0.06,0.01-0.06,0.03c0,0.03,0.03,0.04,0.07,0.04h1.49
	c0.14,0,0.18,0.01,0.2-0.09c0.01-0.08,0.06-0.46,0.06-0.46h0c0,0,0,0,0-0.01c0-0.02-0.02-0.04-0.04-0.04
	c-0.02,0-0.04,0.01-0.04,0.03c-0.04,0.16-0.12,0.26-0.22,0.31c-0.1,0.05-0.25,0.05-0.35,0.05c-0.38,0-0.38-0.05-0.39-0.32
	c0-0.11,0-0.91,0-0.91c0-0.02,0-0.04,0.02-0.04c0.09,0,0.45,0.01,0.52,0.01c0.14,0.02,0.19,0.07,0.21,0.15
	c0.01,0.05,0.01,0.1,0.01,0.14c0,0.02,0.02,0.04,0.04,0.04c0.02,0,0.04-0.01,0.04-0.03v0v0l0.05-0.57h0c0,0,0,0,0,0
	c0-0.02-0.02-0.04-0.04-0.04c-0.01,0-0.03,0.01-0.03,0.02c0,0,0,0,0,0h0c-0.01,0.01-0.01,0.02-0.02,0.03
	c-0.03,0.04-0.09,0.05-0.18,0.06c-0.08,0.01-0.51,0.01-0.59,0.01c-0.02,0-0.03-0.02-0.03-0.04v-0.98c0-0.03,0.01-0.04,0.03-0.04
	c0.07,0,0.46,0.01,0.52,0.01c0.18,0.02,0.22,0.07,0.25,0.14c0.02,0.04,0.02,0.13,0.02,0.15c0,0.02,0.02,0.04,0.04,0.04
	c0.02,0,0.04-0.01,0.04-0.03c0.01-0.06,0.04-0.49,0.04-0.52c0-0.02-0.01-0.03-0.02-0.03c-0.02,0-0.04,0.01-0.06,0.01
	c-0.03,0.01-0.09,0.02-0.16,0.02h-2.23c-0.07,0-0.1,0.01-0.1,0.04c0,0.03,0.03,0.03,0.06,0.03c0.05,0,0.1,0.01,0.15,0.02
	c0.03,0.01,0.05,0.04,0.05,0.07c0,0.03-0.01,0.09-0.03,0.14c-0.09,0.26-0.57,1.51-0.73,1.94h-0.01l-0.64-1.76
	c-0.05-0.14-0.08-0.25-0.08-0.3c0-0.03,0.01-0.06,0.03-0.08c0.03-0.02,0.09-0.03,0.15-0.03c0.03,0,0.06-0.01,0.06-0.03
	c0-0.03-0.04-0.03-0.08-0.03h-2.88c-0.06,0-0.1,0-0.1,0.03c0,0.02,0.02,0.03,0.06,0.03c0.05,0,0.14,0,0.2,0.02
	c0.09,0.04,0.12,0.11,0.13,0.35l0.04,1.75h-0.02c-0.06-0.06-1.91-2.15-1.96-2.2c-0.06-0.07-0.1-0.12-0.14-0.12
	c-0.04,0-0.05,0.06-0.05,0.13l-0.03,2.37c0,0.34-0.02,0.45-0.11,0.48c-0.05,0.02-0.12,0.02-0.17,0.02c-0.04,0-0.06,0.01-0.06,0.03
	c0,0.04,0.03,0.04,0.08,0.04h0.86c0.05,0,0.08-0.01,0.08-0.04c0-0.02-0.02-0.03-0.06-0.03c-0.06,0-0.13,0-0.19-0.03
	c-0.07-0.03-0.12-0.13-0.13-0.43l-0.04-1.7h0.01c0.07,0.08,1.74,2.01,1.97,2.24c0.04,0.04,0.09,0.09,0.13,0.09
	c0.03,0,0.05-0.04,0.05-0.12l0.04-2.5c0-0.22,0.03-0.3,0.14-0.33c0.04-0.01,0.1-0.01,0.13-0.01c0.04,0,0.12,0.01,0.17,0.02
	c0.08,0.02,0.12,0.08,0.12,0.22c0.01,0.12,0.01,2.19-0.01,2.36c-0.01,0.11-0.03,0.18-0.11,0.19c-0.03,0.01-0.08,0.01-0.13,0.01
	c-0.04,0-0.06,0.01-0.06,0.03c0,0.03,0.03,0.04,0.07,0.04h1.04c0.04,0,0.07-0.01,0.07-0.04c0-0.02-0.02-0.03-0.06-0.03
	c-0.05,0-0.14-0.01-0.19-0.01c-0.11-0.01-0.14-0.09-0.15-0.19c-0.01-0.17-0.01-2.24-0.01-2.36c0.01-0.13,0.04-0.2,0.14-0.22
	c0.05-0.01,0.07-0.01,0.11-0.01c0.03,0,0.07,0,0.12,0.02c0.13,0.04,0.2,0.08,0.28,0.29l0.93,2.38c0.07,0.18,0.09,0.24,0.14,0.24
	c0.05,0,0.08-0.07,0.17-0.29c0.08-0.2,0.79-1.88,0.93-2.24c0.1-0.25,0.15-0.31,0.2-0.35C44,15.14,44.07,15.14,44.11,15.14"/>
<path class="st0" d="M61.96,16.54c0.09,0,0.45,0,0.52,0.01c0.14,0.02,0.19,0.08,0.21,0.16c0.01,0.05,0.01,0.1,0,0.14
	c0,0.02,0.02,0.04,0.04,0.04s0.04-0.02,0.04-0.03v0v0l0.05-0.57v0c0-0.02-0.02-0.04-0.04-0.04c-0.01,0-0.03,0.01-0.04,0.02
	c0,0,0,0,0,0.01c-0.01,0.01-0.01,0.01-0.02,0.03c-0.03,0.04-0.09,0.05-0.18,0.06c-0.08,0.01-0.51,0.01-0.59,0.01
	c-0.02,0-0.03-0.01-0.03-0.04v-0.97c0-0.04,0.01-0.06,0.03-0.06l0.57,0.01c0.14,0,0.21,0.06,0.23,0.12
	c0.02,0.06,0.02,0.14,0.02,0.17c0,0.02,0.02,0.04,0.04,0.04c0.02,0,0.04-0.01,0.04-0.03c0,0,0,0,0-0.01c0,0,0.05-0.48,0.05-0.51
	c0-0.02-0.01-0.03-0.03-0.03c-0.02,0-0.04,0.01-0.06,0.02c-0.04,0.01-0.08,0.01-0.15,0.01h-1.51c-0.05,0-0.08,0.01-0.08,0.04
	c0,0.03,0.03,0.03,0.06,0.03c0.05,0,0.11,0.01,0.14,0.01c0.12,0.03,0.15,0.09,0.16,0.22c0.01,0.12,0.01,2.17-0.01,2.34
	c-0.02,0.11-0.03,0.2-0.11,0.22c-0.04,0-0.08,0.01-0.13,0.01c-0.04,0-0.05,0.01-0.05,0.03c0,0.03,0.03,0.04,0.08,0.04h1.03
	c0.06,0,0.08-0.01,0.08-0.04c0-0.02-0.01-0.03-0.06-0.03c-0.05,0-0.13-0.01-0.18-0.01c-0.11-0.02-0.13-0.1-0.14-0.22
	c-0.02-0.16-0.02-1.14-0.02-1.14C61.94,16.55,61.94,16.54,61.96,16.54"/>
<path class="st0" d="M49.77,16.24l-0.1-0.08c-0.31-0.25-0.39-0.38-0.39-0.56c0-0.23,0.17-0.4,0.44-0.4c0.24,0,0.35,0.12,0.4,0.19
	c0.08,0.1,0.1,0.22,0.1,0.26c0,0.02,0,0.03,0.01,0.04c0,0,0,0.01,0,0.01v0l0.01,0.01h0c0.01,0.01,0.01,0.01,0.02,0.01
	c0.02,0,0.04-0.02,0.04-0.04l0.01-0.52v-0.03c0-0.03-0.02-0.04-0.05-0.05c-0.1-0.03-0.25-0.07-0.49-0.07
	c-0.51,0-0.85,0.31-0.85,0.74c0,0.31,0.14,0.59,0.55,0.92l0.17,0.14c0.31,0.25,0.36,0.43,0.36,0.62c0,0.2-0.16,0.44-0.49,0.44
	c-0.23,0-0.45-0.11-0.53-0.39c-0.02-0.07-0.03-0.15-0.03-0.2c0-0.01,0-0.02,0-0.03c0-0.02-0.02-0.04-0.04-0.04
	c-0.02,0-0.04,0.02-0.04,0.04l-0.02,0.57c0,0.09,0.01,0.11,0.07,0.14c0.16,0.07,0.32,0.1,0.54,0.1c0.19,0,0.4-0.04,0.59-0.16
	c0.26-0.18,0.35-0.45,0.35-0.68C50.37,16.86,50.21,16.6,49.77,16.24"/>
</svg>
