<?xml version="1.0" encoding="utf-8"?>
<!-- Generator: Adobe Illustrator 28.0.0, SVG Export Plug-In . SVG Version: 6.00 Build 0)  -->
<svg version="1.1" id="Layer_1" xmlns="http://www.w3.org/2000/svg" xmlns:xlink="http://www.w3.org/1999/xlink" x="0px" y="0px"
	 viewBox="0 0 78.43 20.82" style="enable-background:new 0 0 78.43 20.82;" xml:space="preserve">
<style type="text/css">
	.st0{fill:#8D8D90;}
	.st1{fill:#998247;}
</style>
<path class="st0" d="M20.67,10.3c0-0.2-0.17-0.38-0.38-0.38c-0.03,0-0.06,0.01-0.09,0.01c-3.32,0.69-6.78,0.96-10.33,0.77
	c-1.09-0.06-2.17,0-3.23,0.08c-0.08,0-0.16,0.02-0.24,0.03c-0.85,0.11-1.66,0.49-2.29,1.1C3.57,12.47,3.17,13.17,3,13.94
	c-0.2,0.92-0.06,1.87,0.33,2.72c0.38,0.83,0.98,1.54,1.73,2.06c0.82,0.55,1.71,0.98,2.65,1.26c0.59,0.18,1.12,0.29,1.74,0.37
	c0.01-0.24,0.36-0.61,0.38-0.78c0.01-0.18-0.12-0.33-0.3-0.35c-0.97,0.04-1.69,0.01-2.6-0.33c-0.94-0.35-1.78-0.93-2.45-1.67
	c-0.32-0.35-0.59-0.75-0.76-1.2c-0.17-0.45-0.24-0.93-0.21-1.41c0.09-1.61,1.34-2.97,2.94-3.2c0.88-0.12,1.8,0.1,2.52,0.63
	c0.38,0.28,0.7,0.63,0.93,1.03c0.27,0.45,0.49,0.93,0.64,1.44c0.32,1.05,0.35,2.2,0.22,3.28c-0.06,0.46-0.16,0.92-0.29,1.36
	c-0.07,0.25-0.16,0.51-0.26,0.75c-0.02,0.04-0.03,0.09-0.03,0.14c0,0.21,0.16,0.37,0.36,0.38c0.03,0,0.07,0,0.09,0
	c2.46,0,4.71-0.88,6.45-2.35c0,0,0,0,0.01-0.01c0.07-0.07,0.11-0.16,0.11-0.26c0-0.08-0.03-0.14-0.06-0.21
	c-0.65-1.14-2.07-2.77-2.07-2.77s1.61,1.44,2.76,2.08c0.06,0.03,0.13,0.06,0.21,0.06c0.1,0,0.2-0.04,0.26-0.11
	c0,0,0.01-0.01,0.01-0.01c1.46-1.74,2.35-3.99,2.35-6.44C20.67,10.36,20.67,10.33,20.67,10.3"/>
<path class="st1" d="M2.53,14.89c-0.4-0.88-0.64-1.83-0.7-2.79c-0.01-0.13-0.01-0.31-0.01-0.44c0-0.18-0.14-0.33-0.32-0.33
	c-0.18,0-0.56,0.33-0.83,0.33c0.28,2.12,1.23,4.12,2.71,5.66C4.1,18.09,5,18.67,6.02,18.95c0.88,0.24,1.8,0.13,2.61-0.28
	c0.39-0.2,0.74-0.46,1.04-0.78c0.31-0.34,0.55-0.75,0.78-1.15c0.24-0.43,0.44-0.87,0.62-1.32c0.2-0.48,0.36-0.97,0.57-1.45
	c0.82-1.78,1.97-3.41,3.52-4.62c0.76-0.59,1.59-1.09,2.46-1.48c0.45-0.2,0.91-0.37,1.38-0.51c0.22-0.07,0.45-0.13,0.68-0.18
	c0.2-0.06,0.32-0.28,0.25-0.48c-0.57-1.44-1.48-2.74-2.63-3.77c-0.01-0.01-0.02-0.02-0.03-0.02c-0.06-0.06-0.15-0.1-0.25-0.1
	c-0.1,0-0.19,0.06-0.27,0.12c-1.85,1.29-3.21,3.43-3.21,3.43s0.72-1.83,2.26-4.09c0.04-0.05,0.06-0.12,0.06-0.19
	c0-0.13-0.06-0.24-0.16-0.31c-0.01-0.01-0.02-0.02-0.04-0.02c-0.95-0.56-1.99-0.96-3.07-1.17c-0.79-0.16-1.6-0.22-2.4-0.19
	c0,0,0,0-0.01,0c-0.01,0-0.01,0-0.01,0C9.97,0.39,9.81,0.56,9.8,0.76c-0.1,2.63,0.41,7.16,0.41,7.16S9.3,3.46,8.39,0.98
	C8.34,0.84,8.21,0.72,8.04,0.72c-0.03,0-0.05,0-0.07,0.01c0,0,0,0-0.01,0c-0.06,0.02-0.13,0.04-0.2,0.05
	C6.25,1.23,4.85,2.04,3.71,3.13c-0.2,0.19-0.38,0.38-0.57,0.59C3.14,3.72,3.13,3.72,3.13,3.73c-0.06,0.07-0.1,0.16-0.1,0.26
	c0,0.1,0.04,0.21,0.11,0.27c1.97,1.5,3.43,3.21,3.43,3.21S4.7,6.08,2.48,5.2C2.41,5.18,2.35,5.15,2.28,5.15
	c-0.13,0-0.24,0.06-0.31,0.16c0,0,0,0,0,0.01c-0.32,0.55-0.6,1.12-0.81,1.72C0.89,7.8,0.72,8.6,0.64,9.41
	C0.62,9.61,0.6,9.82,0.81,9.94C0.9,9.98,0.99,9.99,1.08,9.97c0.14-0.03,0.27-0.05,0.41-0.08c0.53-0.08,1.07-0.12,1.6-0.12
	c1.07,0.01,2.14,0.21,3.15,0.58c0.93,0.35,1.77,0.89,2.42,1.66c1.21,1.44,1.86,3.91,0.46,5.44c-0.64,0.7-1.58,1.04-2.52,0.96
	c-0.49-0.05-0.91-0.21-1.34-0.45c-0.38-0.21-0.75-0.45-1.08-0.74C3.46,16.59,2.91,15.76,2.53,14.89"/>
<path class="st1" d="M45.38,9.73c0-0.16,0.92-0.04,1.35,0.09c0.34,0.11,0.89,0.27,1.47,0.71c0.33,0.25,0.73,0.71,0.73,1.25
	c0,0.54-0.32,0.81-0.72,0.81c-0.21-0.03-0.44-0.16-0.63-0.35c-0.2-0.2-0.35-0.59-0.92-1.24C46.02,10.27,45.38,9.84,45.38,9.73"/>
<path class="st1" d="M44.77,4.42l0-1.03l0.45-0.15v0c0.06-0.01,0.1-0.06,0.1-0.12c0-0.07-0.05-0.12-0.11-0.12l0,0l-2.08-0.31v1.74
	h-4.54l0.14,0.31h10.73c0,0,0.13-0.19,0-0.31c-0.13-0.12-1.27-0.83-1.27-0.83l-0.76,0.83H44.77z"/>
<path class="st1" d="M42.92,10.15L42.92,10.15L41.07,9.5c-0.68,1.13-1.31,2.05-2.31,2.89c-0.02,0.02-0.04,0.05-0.04,0.07
	c0,0.05,0.04,0.1,0.1,0.1c0.01,0,0.02,0,0.04-0.01v0l0,0c0.88-0.32,2.15-1.13,3.65-2.15h0.37c0.07,0,0.13-0.06,0.13-0.13
	C43.01,10.21,42.97,10.17,42.92,10.15"/>
<path class="st1" d="M63.06,5.91c-0.17-0.16-1.4-0.92-1.4-0.92l-0.77,0.92h-2.74l0-2.52l0.46-0.14l0,0c0.06-0.01,0.1-0.06,0.1-0.12
	c0-0.07-0.05-0.12-0.11-0.12v0l-2.17-0.31v3.23h-4.17l0.14,0.31h4.03c-0.02,1.54-0.38,2.74-0.91,3.61c-0.66,1.1-1.66,2.12-3.28,3.01
	c0,0,0,0,0,0c-0.01,0-0.01,0.01-0.02,0.01v0c-0.02,0.02-0.04,0.05-0.04,0.08c0,0.05,0.05,0.1,0.1,0.1c0.01,0,0.02,0,0.03-0.01v0
	c1.96-0.56,3.53-1.44,4.34-2.51c0.7-0.91,1.18-1.94,1.33-3.28c0.14,1.19,0.44,2.14,0.89,2.86c0.57,1.01,1.51,1.98,2.78,2.78
	c0.01,0.01,0.02,0.01,0.03,0.02c0.01,0.01,0.03,0.01,0.05,0.01c0.03,0,0.05-0.01,0.07-0.02c0.03-0.02,0.05-0.05,0.05-0.09
	c0.08-0.47,0.7-0.88,1.17-1.05c-1.51-0.84-2.74-1.85-3.34-2.61c-0.72-0.91-1.22-1.88-1.49-2.9h4.88
	C63.06,6.22,63.23,6.07,63.06,5.91"/>
<path class="st1" d="M68.75,3.1c-0.01,0.02-0.01,0.06,0.02,0.11c0.13,0.22,0.48,0.73,0.68,1.06c0.24,0.42,0.26,0.57,0.41,0.72
	c0.13,0.13,0.59,0.24,0.86,0.05c0.28-0.19,0.31-0.57,0.19-0.86c-0.11-0.29-0.53-0.76-0.99-0.93C69.47,3.07,68.83,2.95,68.75,3.1"/>
<path class="st1" d="M70.99,2.73c-0.02,0.02-0.04,0.07,0,0.12c0.15,0.2,0.46,0.59,0.7,0.97c0.31,0.49,0.35,0.77,0.51,0.95
	c0.26,0.26,0.73,0.21,0.89,0.05c0.23-0.23,0.3-0.61,0.22-0.9c-0.14-0.46-0.56-0.85-1.15-1.05C71.63,2.68,71.09,2.63,70.99,2.73"/>
<path class="st1" d="M68.6,4.55c0.25,0.04,0.41,1.01,0.16,1.87c-0.2,0.71-0.69,1.02-1.23,0.9c-0.42-0.09-0.56-0.46-0.43-0.89
	c0.11-0.38,0.46-0.66,0.7-0.9c0.25-0.24,0.55-0.65,0.62-0.85C68.45,4.61,68.5,4.53,68.6,4.55"/>
<path class="st1" d="M73.19,9.48v2.68c0,0.65-1.26,0.86-1.65,0.86c-0.2,0-0.19-0.19-0.28-0.36c-0.07-0.14-0.3-0.34-1.56-0.44
	l-0.11-0.25h2l0-2.49H67.1l-0.15-0.31h4.64V7.96l1.91,0.21c0.18,0.09-0.04,0.4-0.32,0.51v0.49h2.43l0.86-0.93
	c0,0,1.03,0.77,1.2,0.93c0.16,0.16,0,0.31,0,0.31H73.19z"/>
<path class="st1" d="M78.01,5.6c0-0.05-0.03-0.09-0.07-0.11v0l-0.01,0l-1.66-0.83l-0.46,0.66l-1.59-0.01l1.85-1.64l0.52-0.06
	c0.07,0,0.13-0.06,0.13-0.13c0-0.06-0.04-0.1-0.08-0.12l-1.91-0.69c-0.3,0.76-0.67,1.7-1.11,2.63h-4.87l-0.01,0.31l7.17,0.02
	l-0.48,1.51l0.19,0.06l1.83-1.44l0.44-0.04v0C77.96,5.73,78.01,5.67,78.01,5.6"/>
<path class="st1" d="M75.94,7.15L75.94,7.15l-1.59-1.04l-0.47,0.5h-4.82l0.14,0.31h4.59l-0.88,1.42c0.15,0.03,0.02,0.29,0.27,0.34
	l2.2-1.32l0.47,0.04v0c0,0,0.01,0,0.01,0c0.07,0,0.13-0.06,0.13-0.13C76,7.21,75.98,7.18,75.94,7.15"/>
<path class="st1" d="M32.66,10.54c-0.78-0.35-1.39-0.78-1.84-1.31h2V9.7l1.55-0.23v-3.2l0.35-0.16c0.06-0.02,0.1-0.08,0.1-0.15
	c0-0.06-0.04-0.12-0.09-0.14v0l-1.5-0.85l-0.5,0.65h-2.01V4.47h4.64c0,0,0.15-0.18,0-0.32C35.22,4,34.19,3.41,34.19,3.41l-0.66,0.74
	h-2.8V3.39l0.45-0.14v0c0.06-0.01,0.1-0.06,0.1-0.12c0-0.07-0.05-0.12-0.11-0.12l0,0l-2.04-0.31v1.46H24.5l0.13,0.32h4.5v1.14h-2.1
	l-1.48-0.57V9.7l1.55-0.23V9.23h1.57c-1.21,1.5-2.64,2.43-4.09,3.26c-0.03,0.02-0.05,0.05-0.05,0.09c0,0.05,0.04,0.1,0.1,0.1
	c0.01,0,0.02,0,0.03-0.01c1.32-0.43,2.84-0.84,4.48-2.15v2.51l1.6-0.22V9.68c0.24,0.51,0.51,0.83,0.83,1.18
	c0.7,0.81,1.67,1.32,2.93,1.79c0.2-0.63,0.48-1.12,0.96-1.27l0.08-0.12C34.5,11.05,33.54,10.97,32.66,10.54 M29.13,8.92H27.1v-1.4
	h2.03V8.92z M29.13,7.21H27.1V5.92h2.03V7.21z M30.73,5.92h2.09v1.29h-2.09V5.92z M30.73,7.52h2.09v1.4h-2.09V7.52z"/>
<path class="st1" d="M48.42,6.03L48.42,6.03l-1.55-0.88l-0.5,0.65h-4.76l-1.53-0.57v4.05l1.6-0.23V8.79h1.54l0,3.19h-2l0.11,0.25
	c1.26,0.1,1.48,0.29,1.55,0.44c0.09,0.17,0.08,0.36,0.28,0.36c0.38,0,1.65-0.21,1.65-0.86V8.79h1.64v0.45l1.59-0.23V6.54V6.49
	l0.36-0.17c0.06-0.02,0.1-0.08,0.1-0.15C48.51,6.11,48.47,6.05,48.42,6.03 M46.46,8.46h-4.78V6.11h4.78V8.46z"/>
<path class="st1" d="M29.46,16.2c0.01,0,0.02-0.01,0.02-0.02V16.1c0-0.59,0-0.7-0.01-0.82c-0.01-0.13-0.04-0.2-0.16-0.22
	c-0.03-0.01-0.09-0.01-0.14-0.01c-0.04,0-0.06-0.01-0.06-0.04c0-0.03,0.03-0.04,0.08-0.04h1c0.05,0,0.08,0.01,0.08,0.04
	c0,0.03-0.02,0.04-0.07,0.04c-0.03,0-0.06,0-0.11,0.01c-0.1,0.02-0.13,0.09-0.14,0.22c-0.01,0.12-0.01,2.17,0.01,2.34
	c0.01,0.11,0.04,0.19,0.14,0.21c0.05,0.01,0.13,0.02,0.19,0.02c0.04,0,0.06,0.01,0.06,0.03c0,0.03-0.03,0.04-0.07,0.04h-1.04
	c-0.05,0-0.08-0.01-0.08-0.04c0-0.02,0.01-0.03,0.06-0.03c0.05,0,0.1-0.01,0.13-0.02c0.07-0.01,0.09-0.1,0.11-0.21
	c0.02-0.16,0.02-0.47,0.02-0.83v-0.34c0-0.02-0.01-0.02-0.02-0.02h-1.41c-0.01,0-0.02,0-0.02,0.02v0.34c0,0.36,0,0.66,0.02,0.83
	c0.01,0.11,0.03,0.19,0.14,0.21c0.05,0.01,0.13,0.02,0.19,0.02c0.04,0,0.06,0.01,0.06,0.03c0,0.03-0.03,0.04-0.07,0.04h-1.04
	c-0.05,0-0.08-0.01-0.08-0.04c0-0.02,0.02-0.03,0.06-0.03c0.06,0,0.1-0.01,0.13-0.02c0.07-0.01,0.09-0.1,0.11-0.21
	c0.02-0.16,0.02-2.21,0.01-2.33c-0.01-0.13-0.04-0.2-0.16-0.22c-0.03-0.01-0.09-0.01-0.14-0.01c-0.04,0-0.06-0.01-0.06-0.04
	c0-0.03,0.03-0.04,0.08-0.04h1c0.05,0,0.08,0.01,0.08,0.04c0,0.03-0.02,0.04-0.07,0.04c-0.03,0-0.06,0-0.11,0.01
	c-0.1,0.02-0.13,0.09-0.14,0.22c-0.01,0.12-0.01,0.23-0.01,0.82v0.08c0,0.02,0.01,0.02,0.02,0.02H29.46z"/>
<path class="st1" d="M33.97,14.4c-0.01-0.18-0.05-0.26-0.21-0.3c-0.04-0.01-0.12-0.02-0.19-0.02c-0.05,0-0.08-0.01-0.08-0.05
	c0-0.04,0.04-0.05,0.11-0.05h1.32c0.07,0,0.11,0.01,0.11,0.05c0,0.04-0.03,0.05-0.08,0.05c-0.05,0-0.08,0.01-0.14,0.02
	c-0.13,0.03-0.17,0.11-0.18,0.3c-0.01,0.17-0.01,1.82-0.01,1.82c0,0.75,0.14,1.07,0.38,1.28c0.22,0.19,0.45,0.21,0.62,0.21
	c0.22,0,0.48-0.07,0.68-0.28c0.27-0.28,0.29-0.75,0.29-1.28c0,0,0-1.58-0.01-1.75c-0.01-0.18-0.05-0.26-0.21-0.3
	c-0.04-0.01-0.12-0.02-0.18-0.02s-0.08-0.01-0.08-0.05c0-0.04,0.03-0.05,0.1-0.05h1.13c0.07,0,0.1,0.01,0.1,0.05
	c0,0.04-0.03,0.05-0.09,0.05c-0.05,0-0.08,0.01-0.14,0.02c-0.13,0.03-0.17,0.11-0.18,0.3C37,14.56,37,16.05,37,16.05
	c0,0.58-0.05,1.19-0.47,1.56c-0.35,0.32-0.7,0.38-1.02,0.38c-0.26,0-0.73-0.02-1.09-0.36c-0.25-0.24-0.44-0.62-0.44-1.37
	C33.98,16.25,33.98,14.56,33.97,14.4"/>
<path class="st1" d="M51.08,15.27c-0.01-0.13-0.04-0.2-0.13-0.22c-0.04-0.01-0.09-0.02-0.13-0.02c-0.04,0-0.06-0.01-0.06-0.04
	c0-0.02,0.03-0.03,0.09-0.03h0.93c0.05,0,0.08,0.01,0.08,0.03c0,0.03-0.02,0.04-0.06,0.04c-0.04,0-0.07,0-0.11,0.01
	c-0.1,0.02-0.13,0.09-0.14,0.22c-0.01,0.12-0.01,2.19,0.01,2.36c0.01,0.1,0.04,0.17,0.15,0.19c0.05,0.01,0.13,0.02,0.19,0.02
	c0.04,0,0.06,0.01,0.06,0.03c0,0.03-0.03,0.04-0.07,0.04h-1.04c-0.05,0-0.08-0.01-0.08-0.04c0-0.02,0.01-0.03,0.06-0.03
	c0.06,0,0.1-0.01,0.13-0.02c0.07-0.01,0.1-0.08,0.11-0.19C51.09,17.46,51.09,15.4,51.08,15.27"/>
<path class="st1" d="M55.92,16.9c0-0.21-0.04-0.3-0.09-0.41c-0.02-0.06-0.52-0.92-0.65-1.12c-0.09-0.14-0.18-0.24-0.26-0.29
	c-0.05-0.03-0.11-0.05-0.15-0.05c-0.03,0-0.05-0.01-0.05-0.04c0-0.02,0.02-0.04,0.07-0.04h0.86c0.04,0,0.06,0.01,0.06,0.04
	c0,0.02-0.03,0.03-0.08,0.04c-0.03,0.01-0.05,0.04-0.05,0.07c0,0.03,0.02,0.08,0.04,0.13c0.05,0.12,0.57,1.05,0.63,1.16
	c0.03-0.09,0.5-0.95,0.55-1.07c0.04-0.09,0.05-0.15,0.05-0.2c0-0.04-0.01-0.08-0.08-0.1c-0.03-0.01-0.07-0.02-0.07-0.04
	c0-0.03,0.02-0.04,0.06-0.04h0.74c0.04,0,0.07,0.01,0.07,0.03c0,0.03-0.03,0.04-0.07,0.04c-0.04,0-0.1,0.01-0.16,0.05
	c-0.08,0.04-0.12,0.08-0.2,0.19c-0.12,0.15-0.64,1.07-0.71,1.23c-0.06,0.14-0.06,0.26-0.06,0.39c0,0,0,0.55,0.01,0.71
	c0.01,0.11,0.04,0.2,0.15,0.21c0.05,0.01,0.13,0.02,0.18,0.02c0.04,0,0.06,0.01,0.06,0.03c0,0.03-0.03,0.04-0.08,0.04h-1.03
	c-0.05,0-0.08-0.01-0.08-0.04c0-0.02,0.02-0.03,0.06-0.03c0.05,0,0.1-0.01,0.13-0.02c0.07-0.01,0.11-0.1,0.12-0.21
	C55.92,17.44,55.92,16.9,55.92,16.9"/>
<path class="st1" d="M58.2,16.44c0-0.67,0.42-1.53,1.52-1.53c0.92,0,1.49,0.57,1.49,1.45c0,0.89-0.59,1.59-1.53,1.59
	C58.63,17.96,58.2,17.13,58.2,16.44 M60.7,16.51c0-0.87-0.51-1.41-1.11-1.41c-0.42,0-0.88,0.25-0.88,1.21
	c0,0.81,0.46,1.45,1.16,1.45C60.13,17.77,60.7,17.63,60.7,16.51"/>
<path class="st1" d="M66.64,16.44c0-0.67,0.42-1.53,1.53-1.53c0.92,0,1.49,0.57,1.49,1.45c0,0.89-0.59,1.59-1.53,1.59
	C67.07,17.96,66.64,17.13,66.64,16.44 M69.15,16.51c0-0.87-0.51-1.41-1.11-1.41c-0.42,0-0.88,0.25-0.88,1.21
	c0,0.81,0.45,1.45,1.16,1.45C68.58,17.77,69.15,17.63,69.15,16.51"/>
<path class="st1" d="M72.34,15.04c0.04,0,0.11,0.02,0.15,0.05c0.07,0.04,0.16,0.14,0.26,0.29c0.13,0.2,0.62,1.06,0.65,1.12
	c0.05,0.11,0.08,0.2,0.08,0.41c0,0,0,0.55-0.01,0.71c-0.01,0.11-0.04,0.2-0.11,0.21c-0.04,0.01-0.08,0.02-0.13,0.02
	c-0.04,0-0.06,0.01-0.06,0.03c0,0.03,0.03,0.04,0.08,0.04h1.02c0.05,0,0.08-0.01,0.08-0.04c0-0.02-0.02-0.03-0.06-0.03
	c-0.05,0-0.13-0.01-0.18-0.02c-0.11-0.01-0.14-0.1-0.15-0.21c-0.01-0.16-0.01-0.71-0.01-0.71c0-0.13,0-0.25,0.06-0.39
	c0.07-0.17,0.59-1.08,0.71-1.23c0.08-0.11,0.12-0.15,0.2-0.19c0.06-0.03,0.13-0.05,0.16-0.05c0.04,0,0.07-0.01,0.07-0.04
	c0-0.02-0.03-0.03-0.07-0.03h-0.74c-0.04,0-0.06,0.01-0.06,0.04c0,0.02,0.03,0.03,0.07,0.04c0.06,0.02,0.08,0.06,0.08,0.1
	c0,0.05-0.02,0.12-0.05,0.2c-0.05,0.12-0.52,0.97-0.55,1.07c-0.06-0.11-0.58-1.05-0.63-1.16c-0.03-0.05-0.04-0.1-0.04-0.13
	s0.02-0.06,0.05-0.07c0.06-0.02,0.08-0.02,0.08-0.04c0-0.02-0.02-0.04-0.05-0.04h-1.69c-0.04,0-0.06,0.01-0.06,0.04
	c0,0.02,0.01,0.03,0.05,0.04c0.04,0.01,0.05,0.04,0.05,0.08c0,0.06-0.08,0.16-0.18,0.29c-0.11,0.13-0.65,0.71-0.77,0.86h-0.02V16.1
	c0-0.59,0-0.7,0.01-0.82c0.01-0.14,0.04-0.2,0.14-0.22c0.04-0.01,0.07-0.01,0.1-0.01c0.03,0,0.05-0.01,0.05-0.04
	s-0.03-0.04-0.08-0.04h-0.96c-0.06,0-0.08,0.01-0.08,0.04s0.02,0.04,0.06,0.04c0.05,0,0.12,0,0.15,0.01
	c0.12,0.03,0.15,0.09,0.16,0.22c0.01,0.12,0.01,2.17-0.01,2.33c-0.02,0.11-0.04,0.2-0.11,0.21c-0.04,0.01-0.08,0.02-0.13,0.02
	c-0.04,0-0.06,0.01-0.06,0.03c0,0.03,0.03,0.04,0.07,0.04h1c0.04,0,0.07-0.01,0.07-0.04c0-0.02-0.02-0.03-0.05-0.03
	c-0.05,0-0.13-0.01-0.18-0.02c-0.09-0.01-0.13-0.1-0.14-0.21c-0.01-0.17-0.01-0.48-0.01-0.83v-0.35h0.02l0.04,0.06
	c0.08,0.11,0.8,1.01,0.97,1.16c0.16,0.15,0.26,0.24,0.46,0.25c0.08,0.01,0.14,0.01,0.25,0.01h0.32c0.07,0,0.09-0.01,0.09-0.04
	c0-0.02-0.02-0.03-0.05-0.03c-0.04,0-0.12-0.01-0.23-0.05c-0.2-0.08-0.36-0.26-0.53-0.42c-0.14-0.14-0.87-0.96-1-1.15
	c0.12-0.14,0.68-0.72,0.8-0.84c0.16-0.16,0.28-0.24,0.4-0.29C72.2,15.05,72.29,15.04,72.34,15.04"/>
<path class="st1" d="M74.84,16.44c0-0.67,0.42-1.53,1.52-1.53c0.92,0,1.49,0.57,1.49,1.45c0,0.89-0.59,1.59-1.53,1.59
	C75.27,17.96,74.84,17.13,74.84,16.44 M77.34,16.51c0-0.87-0.51-1.41-1.11-1.41c-0.42,0-0.88,0.25-0.88,1.21
	c0,0.81,0.45,1.45,1.16,1.45C76.77,17.77,77.34,17.63,77.34,16.51"/>
<path class="st1" d="M49.56,18.24c-0.33-0.02-0.63-0.12-0.89-0.38c-0.25-0.25-0.68-0.86-0.93-1.33c0.37-0.32,0.49-0.58,0.49-0.87
	c0-0.26-0.15-0.46-0.25-0.53c-0.2-0.14-0.45-0.17-0.68-0.17h-1.03c-0.05,0-0.08,0.01-0.08,0.04c0,0.03,0.02,0.04,0.06,0.04
	c0.05,0,0.11,0,0.14,0.01c0.12,0.03,0.15,0.09,0.16,0.22c0.01,0.12,0.01,0.23,0.01,0.82v0.69c0,0.36,0,0.66-0.02,0.83
	c-0.01,0.11-0.03,0.2-0.11,0.21c-0.03,0.01-0.08,0.02-0.13,0.02c-0.05,0-0.06,0.01-0.06,0.03c0,0.03,0.03,0.04,0.07,0.04h0.99
	c0.05,0,0.07-0.01,0.07-0.04c0-0.02-0.02-0.03-0.05-0.03c-0.04,0-0.12-0.01-0.18-0.02c-0.11-0.01-0.13-0.1-0.14-0.21
	c-0.02-0.16-0.02-0.47-0.02-0.83v-0.06c0-0.02,0.01-0.03,0.03-0.03l0.32,0.01c0.03,0,0.05,0,0.07,0.02
	c0.04,0.09,0.23,0.52,0.39,0.79c0.17,0.26,0.33,0.47,0.49,0.6c0.2,0.16,0.41,0.22,0.66,0.25c0.32,0.03,0.54,0,0.6-0.02
	c0.05-0.02,0.12-0.04,0.12-0.07C49.69,18.23,49.63,18.25,49.56,18.24 M47.58,16.44c-0.07,0.05-0.11,0.07-0.26,0.07
	c-0.09,0-0.2-0.01-0.28-0.04c-0.03-0.01-0.03-0.03-0.03-0.07v-1.18c0-0.03,0.01-0.04,0.03-0.05c0.04-0.01,0.1-0.02,0.2-0.02
	c0.22,0,0.57,0.16,0.57,0.71C47.8,16.18,47.69,16.36,47.58,16.44"/>
<path class="st1" d="M26.97,14.94c-0.02,0-0.04,0.01-0.1,0.02h-2.09c-0.09-0.01-0.13-0.05-0.16-0.05c-0.02,0-0.03,0.02-0.05,0.08
	c-0.01,0.04-0.08,0.46-0.08,0.46c0,0,0,0,0,0.01c0,0.02,0.02,0.04,0.04,0.04c0.02,0,0.03-0.01,0.04-0.02v0v0
	c0.01-0.03,0.03-0.1,0.07-0.16c0.05-0.09,0.14-0.1,0.36-0.11h0.55c0,0,0,2.24-0.02,2.4c-0.01,0.11-0.03,0.2-0.11,0.21
	c-0.03,0.01-0.08,0.02-0.13,0.02c-0.04,0-0.06,0.01-0.06,0.03c0,0.03,0.03,0.04,0.07,0.04h1.05c0.04,0,0.07-0.01,0.07-0.04
	c0-0.02-0.02-0.03-0.06-0.03c-0.06,0-0.14-0.01-0.19-0.02c-0.11-0.01-0.14-0.1-0.15-0.21c-0.02-0.17-0.02-2.41-0.02-2.41h0.46
	c0.33,0.01,0.43,0.11,0.43,0.21l0.01,0.08c0,0.02,0.02,0.04,0.04,0.04c0.02,0,0.04-0.02,0.04-0.04c0,0,0-0.42,0-0.47
	C27,14.96,27,14.94,26.97,14.94"/>
<path class="st1" d="M54.56,14.94c-0.02,0-0.04,0.01-0.1,0.02h-2.09c-0.09-0.01-0.13-0.05-0.16-0.05c-0.02,0-0.03,0.02-0.05,0.08
	c-0.01,0.04-0.08,0.46-0.08,0.46h0c0,0,0,0,0,0.01c0,0.02,0.02,0.04,0.04,0.04c0.02,0,0.03-0.01,0.04-0.02v0v0
	c0.01-0.03,0.03-0.1,0.07-0.16c0.06-0.09,0.14-0.1,0.36-0.11h0.55c0,0,0,2.24-0.02,2.4c-0.01,0.11-0.03,0.2-0.11,0.21
	c-0.03,0.01-0.08,0.02-0.13,0.02c-0.04,0-0.06,0.01-0.06,0.03c0,0.03,0.03,0.04,0.07,0.04h1.05c0.04,0,0.07-0.01,0.07-0.04
	c0-0.02-0.02-0.03-0.06-0.03c-0.06,0-0.14-0.01-0.19-0.02c-0.11-0.01-0.13-0.1-0.14-0.21c-0.02-0.17-0.02-2.41-0.02-2.41h0.47
	c0.33,0.01,0.43,0.11,0.43,0.21l0.01,0.08c0,0.02,0.02,0.04,0.04,0.04c0.02,0,0.04-0.02,0.04-0.04c0,0,0-0.42,0-0.47
	C54.59,14.96,54.58,14.94,54.56,14.94"/>
<path class="st1" d="M67.14,13.95c-0.02,0-0.06,0.02-0.13,0.04h-2.79c-0.12-0.01-0.17-0.07-0.21-0.07c-0.03,0-0.04,0.03-0.06,0.1
	c-0.01,0.05-0.11,0.62-0.11,0.62l0,0c0,0,0,0,0,0.01c0,0.03,0.02,0.05,0.05,0.05c0.02,0,0.04-0.01,0.05-0.03v0
	c0.02-0.05,0.04-0.13,0.09-0.21c0.07-0.11,0.19-0.14,0.48-0.15h0.74c0,0,0,3-0.02,3.21c-0.01,0.15-0.04,0.26-0.14,0.28
	c-0.04,0.01-0.11,0.02-0.18,0.02c-0.06,0-0.08,0.02-0.08,0.04c0,0.04,0.03,0.05,0.1,0.05h1.39c0.06,0,0.09-0.02,0.09-0.05
	c0-0.02-0.03-0.04-0.08-0.04c-0.07,0-0.18-0.01-0.25-0.02c-0.15-0.02-0.18-0.13-0.19-0.28c-0.03-0.22-0.03-3.22-0.03-3.22h0.62
	c0.44,0.01,0.56,0.15,0.58,0.29l0.01,0.11c0,0.03,0.02,0.05,0.05,0.05c0.03,0,0.05-0.02,0.05-0.05c0,0,0-0.56,0.01-0.63
	C67.18,13.98,67.18,13.95,67.14,13.95"/>
<path class="st1" d="M32.4,17.35c0-0.02-0.02-0.04-0.04-0.04c-0.02,0-0.03,0.01-0.04,0.03c-0.04,0.16-0.13,0.26-0.22,0.31
	c-0.1,0.04-0.25,0.04-0.35,0.04c-0.38,0-0.39-0.05-0.39-0.32c0-0.11,0-0.91,0-0.91c0-0.02,0-0.04,0.02-0.04
	c0.09,0,0.46,0.01,0.53,0.01c0.14,0.02,0.19,0.07,0.21,0.15c0.01,0.05,0.01,0.1,0.01,0.14c0,0.02,0.02,0.04,0.04,0.04
	c0.02,0,0.04-0.02,0.04-0.03h0v0v0l0.05-0.57h0c0,0,0,0,0,0c0-0.02-0.02-0.04-0.04-0.04c-0.01,0-0.02,0.01-0.03,0.02c0,0,0,0,0,0.01
	c-0.01,0.01-0.01,0.02-0.02,0.03c-0.03,0.04-0.09,0.05-0.18,0.06c-0.09,0.01-0.51,0.01-0.59,0.01c-0.02,0-0.03-0.02-0.03-0.04v-0.99
	c0-0.03,0.01-0.04,0.03-0.04c0.07,0,0.46,0.01,0.52,0.02c0.18,0.02,0.22,0.07,0.25,0.14c0.02,0.04,0.02,0.13,0.02,0.15
	c0,0.02,0.02,0.04,0.04,0.04c0.02,0,0.04-0.01,0.04-0.03c0.01-0.05,0.04-0.49,0.04-0.52c0-0.02,0-0.03-0.02-0.03
	s-0.04,0.01-0.06,0.01c-0.03,0.01-0.09,0.02-0.16,0.02H30.6c-0.06,0-0.08,0.01-0.08,0.04c0,0.03,0.02,0.04,0.06,0.04
	c0.05,0,0.11,0,0.15,0.01c0.12,0.03,0.15,0.09,0.16,0.22c0.01,0.12,0.01,2.17-0.01,2.33c-0.01,0.11-0.03,0.2-0.11,0.21
	c-0.03,0.01-0.08,0.02-0.13,0.02c-0.04,0-0.06,0.01-0.06,0.03c0,0.03,0.03,0.04,0.07,0.04h1.49c0.14,0,0.18,0.01,0.2-0.09
	C32.35,17.74,32.4,17.36,32.4,17.35L32.4,17.35C32.4,17.36,32.4,17.35,32.4,17.35"/>
<path class="st1" d="M44.25,15.04c0.05,0,0.11,0,0.14,0.01c0.12,0.03,0.15,0.09,0.16,0.22c0.01,0.12,0.01,2.17-0.01,2.33
	c-0.02,0.11-0.03,0.2-0.11,0.21c-0.03,0.01-0.08,0.02-0.13,0.02c-0.04,0-0.06,0.01-0.06,0.03c0,0.03,0.03,0.04,0.07,0.04h1.49
	c0.14,0,0.18,0.01,0.2-0.09c0.01-0.08,0.06-0.46,0.06-0.46h0c0,0,0-0.01,0-0.01c0-0.02-0.02-0.04-0.04-0.04
	c-0.02,0-0.04,0.01-0.04,0.03c-0.04,0.16-0.12,0.26-0.22,0.31c-0.1,0.05-0.25,0.05-0.35,0.05c-0.38,0-0.38-0.05-0.39-0.32
	c0-0.11,0-0.91,0-0.91c0-0.02,0-0.04,0.02-0.04c0.09,0,0.45,0.01,0.52,0.01c0.14,0.02,0.19,0.07,0.21,0.15
	c0.01,0.05,0.01,0.1,0.01,0.14c0,0.02,0.02,0.04,0.04,0.04c0.02,0,0.04-0.02,0.04-0.03v0v0l0.05-0.57h0c0,0,0,0,0,0
	c0-0.02-0.02-0.04-0.04-0.04c-0.01,0-0.03,0.01-0.03,0.02c0,0,0,0,0,0.01h0c-0.01,0.01-0.01,0.02-0.02,0.03
	c-0.03,0.04-0.09,0.05-0.18,0.06c-0.08,0.01-0.51,0.01-0.59,0.01c-0.02,0-0.03-0.01-0.03-0.04v-0.98c0-0.03,0.01-0.04,0.03-0.04
	c0.07,0,0.46,0.01,0.52,0.02c0.18,0.02,0.22,0.07,0.25,0.14c0.02,0.05,0.02,0.13,0.02,0.15c0,0.02,0.02,0.04,0.04,0.04
	c0.02,0,0.04-0.01,0.04-0.03c0.01-0.05,0.04-0.49,0.04-0.52c0-0.02-0.01-0.03-0.02-0.03c-0.02,0-0.04,0.01-0.06,0.01
	c-0.03,0.01-0.09,0.02-0.16,0.02h-2.23c-0.07,0-0.1,0.01-0.1,0.04c0,0.03,0.03,0.03,0.06,0.03c0.05,0,0.1,0,0.15,0.02
	c0.03,0.01,0.05,0.04,0.05,0.07c0,0.03-0.01,0.09-0.03,0.14c-0.09,0.26-0.57,1.51-0.73,1.93h-0.01l-0.64-1.76
	c-0.05-0.14-0.08-0.25-0.08-0.3c0-0.04,0.01-0.06,0.03-0.08c0.03-0.02,0.09-0.03,0.15-0.03c0.03,0,0.06-0.01,0.06-0.04
	s-0.04-0.04-0.08-0.04h-2.88c-0.06,0-0.1,0-0.1,0.04c0,0.02,0.02,0.04,0.06,0.04c0.05,0,0.14,0,0.2,0.02
	c0.09,0.04,0.12,0.11,0.13,0.35l0.04,1.75h-0.02c-0.06-0.06-1.91-2.15-1.96-2.2c-0.06-0.07-0.1-0.12-0.14-0.12
	c-0.04,0-0.05,0.05-0.05,0.13l-0.03,2.37c0,0.34-0.02,0.45-0.11,0.48c-0.05,0.02-0.12,0.02-0.17,0.02c-0.04,0-0.06,0.01-0.06,0.03
	c0,0.03,0.03,0.04,0.08,0.04h0.86c0.05,0,0.08-0.01,0.08-0.04c0-0.02-0.02-0.03-0.06-0.03c-0.06,0-0.13,0-0.19-0.03
	c-0.07-0.03-0.12-0.13-0.13-0.43l-0.04-1.7h0.01c0.07,0.07,1.74,2,1.97,2.24c0.04,0.04,0.09,0.09,0.13,0.09
	c0.03,0,0.05-0.04,0.05-0.12l0.04-2.5c0-0.22,0.03-0.3,0.14-0.33c0.04-0.01,0.1-0.01,0.13-0.01c0.04,0,0.12,0,0.17,0.02
	c0.08,0.02,0.12,0.09,0.12,0.22c0.01,0.12,0.01,2.19-0.01,2.36c-0.01,0.11-0.03,0.18-0.11,0.19c-0.03,0.01-0.08,0.02-0.13,0.02
	c-0.04,0-0.06,0.01-0.06,0.03c0,0.03,0.03,0.04,0.07,0.04h1.04c0.04,0,0.07-0.01,0.07-0.04c0-0.02-0.02-0.03-0.06-0.03
	c-0.05,0-0.14-0.01-0.19-0.02c-0.11-0.01-0.14-0.08-0.15-0.19c-0.01-0.17-0.01-2.24-0.01-2.36c0.01-0.14,0.04-0.2,0.14-0.22
	c0.05-0.01,0.07-0.01,0.11-0.01c0.03,0,0.07,0,0.12,0.02c0.13,0.04,0.2,0.08,0.28,0.3l0.93,2.37c0.07,0.18,0.09,0.24,0.14,0.24
	c0.05,0,0.08-0.06,0.17-0.29c0.08-0.2,0.79-1.88,0.93-2.24c0.1-0.25,0.15-0.31,0.2-0.35C44.13,15.04,44.21,15.04,44.25,15.04"/>
<path class="st1" d="M62.1,16.43c0.09,0,0.45,0,0.52,0.01c0.14,0.02,0.19,0.08,0.21,0.16c0.01,0.05,0.01,0.1,0,0.14
	c0,0.02,0.02,0.04,0.04,0.04s0.04-0.02,0.04-0.03v0v0l0.05-0.57v0c0-0.02-0.02-0.04-0.04-0.04c-0.01,0-0.03,0.01-0.04,0.02
	c0,0,0,0,0,0.01c-0.01,0.01-0.01,0.01-0.02,0.03c-0.03,0.04-0.09,0.05-0.18,0.06c-0.08,0.01-0.51,0.01-0.59,0.01
	c-0.02,0-0.03-0.01-0.03-0.04v-0.97c0-0.04,0.01-0.05,0.03-0.05l0.57,0.01c0.14,0,0.21,0.06,0.23,0.12
	c0.02,0.05,0.02,0.14,0.02,0.17c0,0.02,0.02,0.04,0.04,0.04c0.02,0,0.04-0.01,0.04-0.03c0,0,0,0,0-0.01c0,0,0.05-0.48,0.05-0.51
	c0-0.02-0.01-0.03-0.03-0.03c-0.02,0-0.04,0.01-0.06,0.02c-0.04,0.01-0.08,0.01-0.15,0.01h-1.51c-0.05,0-0.08,0.01-0.08,0.04
	c0,0.02,0.03,0.03,0.06,0.03c0.05,0,0.11,0,0.14,0.01c0.12,0.03,0.15,0.09,0.16,0.22c0.01,0.12,0.01,2.17-0.01,2.33
	c-0.02,0.11-0.03,0.2-0.11,0.21c-0.04,0.01-0.08,0.02-0.13,0.02c-0.04,0-0.05,0.01-0.05,0.03c0,0.03,0.03,0.04,0.08,0.04h1.03
	c0.06,0,0.08-0.01,0.08-0.04c0-0.02-0.01-0.03-0.06-0.03c-0.05,0-0.13-0.01-0.18-0.02c-0.11-0.01-0.13-0.1-0.14-0.21
	c-0.02-0.16-0.02-1.14-0.02-1.14C62.07,16.44,62.08,16.43,62.1,16.43"/>
<path class="st1" d="M49.9,16.13l-0.1-0.08c-0.31-0.25-0.39-0.38-0.39-0.56c0-0.23,0.17-0.4,0.44-0.4c0.24,0,0.35,0.12,0.4,0.19
	c0.08,0.1,0.1,0.22,0.1,0.26c0,0.02,0,0.03,0.01,0.04c0,0,0,0.01,0,0.01v0l0.01,0.01h0c0.01,0,0.01,0.01,0.02,0.01
	c0.02,0,0.04-0.02,0.04-0.04l0.01-0.52v-0.03c0-0.03-0.02-0.04-0.05-0.05c-0.1-0.03-0.25-0.07-0.49-0.07
	c-0.51,0-0.85,0.31-0.85,0.74c0,0.31,0.14,0.59,0.55,0.92l0.17,0.14c0.31,0.25,0.36,0.43,0.36,0.62c0,0.21-0.16,0.45-0.49,0.45
	c-0.23,0-0.45-0.11-0.53-0.4c-0.02-0.07-0.03-0.15-0.03-0.2c0-0.01,0-0.02,0-0.03c0-0.02-0.02-0.04-0.04-0.04
	c-0.02,0-0.04,0.02-0.04,0.04l-0.02,0.57c0,0.08,0.01,0.11,0.07,0.13c0.16,0.07,0.32,0.1,0.54,0.1c0.19,0,0.4-0.03,0.59-0.16
	c0.26-0.18,0.35-0.45,0.35-0.68C50.51,16.76,50.34,16.5,49.9,16.13"/>
</svg>
