<?xml version="1.0" encoding="utf-8"?>
<!-- Generator: Adobe Illustrator 26.0.2, SVG Export Plug-In . SVG Version: 6.00 Build 0)  -->
<svg version="1.1" id="Layer_1" xmlns="http://www.w3.org/2000/svg" xmlns:xlink="http://www.w3.org/1999/xlink" x="0px" y="0px"
	 viewBox="0 0 113.4 113.4" style="enable-background:new 0 0 113.4 113.4;" xml:space="preserve">
<style type="text/css">
	.st0{fill:#999999;stroke:#CCCCCC;stroke-miterlimit:10;}
</style>
<path class="st0" d="M64.4,43.1h-9.2v30.8h9.5c13.5,0,16.6-10.3,16.6-15.4C81.4,50.2,76.1,43.1,64.4,43.1z M56.7,7.1
	C29.3,7.1,7.1,29.3,7.1,56.7s22.2,49.6,49.6,49.6s49.6-22.2,49.6-49.6S84.1,7.1,56.7,7.1z M40.5,79.2h-6V37.7h6V79.2z M37.6,33
	c-2.2,0-3.9-1.8-3.9-3.9s1.8-3.9,3.9-3.9c2.2,0,3.9,1.8,3.9,3.9l0,0C41.5,31.3,39.7,33,37.6,33L37.6,33z M65.5,79.3H49.3V37.7h16.1
	c15.3,0,22.1,11,22.1,20.8C87.5,69.2,79.2,79.3,65.5,79.3z"/>
</svg>
